<?xml version="1.0" encoding="UTF-8"?>
<svg xmlns="http://www.w3.org/2000/svg" xmlns:xlink="http://www.w3.org/1999/xlink" width="300px" height="150px" viewBox="0 0 300 150" version="1.1">
<g id="surface1">
<path style=" stroke:none;fill-rule:nonzero;fill:rgb(98.823529%,63.921571%,1.176471%);fill-opacity:1;" d="M 92.347656 40.171875 C 93.027344 40.238281 93.65625 40.339844 94.304688 40.496094 C 94.402344 40.515625 94.496094 40.539062 94.59375 40.5625 C 94.90625 40.636719 95.21875 40.710938 95.527344 40.789062 C 95.636719 40.8125 95.742188 40.839844 95.851562 40.867188 C 105.074219 43.089844 114.078125 46.300781 121.242188 51.101562 C 121.59375 51.335938 121.949219 51.566406 122.308594 51.792969 C 123.210938 52.378906 124.066406 52.988281 124.859375 53.652344 C 125.125 53.871094 125.398438 54.085938 125.671875 54.300781 C 128.410156 56.484375 130.648438 58.992188 132.617188 61.5625 C 132.683594 61.644531 132.75 61.730469 132.816406 61.820312 C 138.546875 69.320312 140.96875 77.964844 145.929688 101.964844 C 146.277344 103.78125 146.625 105.601562 146.980469 107.417969 C 146.515625 107.308594 146.457031 107.238281 146.183594 106.960938 C 144.632812 105.488281 142.714844 104.285156 140.671875 103.179688 C 140.582031 103.128906 140.488281 103.082031 140.398438 103.03125 C 138.164062 101.828125 135.796875 100.78125 133.339844 99.835938 C 133.121094 99.75 132.898438 99.664062 132.679688 99.578125 C 122.15625 95.457031 108.363281 92.488281 96.515625 94.929688 C 95.140625 95.234375 93.882812 95.664062 92.617188 96.144531 C 92.347656 96.242188 92.082031 96.339844 91.8125 96.433594 C 91.785156 89.515625 91.820312 82.601562 91.894531 75.679688 C 91.898438 75.582031 91.898438 75.484375 91.898438 75.382812 C 91.925781 72.9375 91.953125 70.492188 91.980469 68.046875 C 92 66.480469 92.015625 64.917969 92.03125 63.351562 C 92.035156 63.25 92.035156 63.144531 92.035156 63.039062 C 92.039062 62.933594 92.039062 62.832031 92.039062 62.726562 C 92.042969 62.515625 92.042969 62.308594 92.046875 62.101562 C 92.046875 61.996094 92.046875 61.894531 92.050781 61.789062 C 92.066406 60.15625 92.085938 58.527344 92.105469 56.894531 C 92.109375 56.316406 92.117188 55.742188 92.121094 55.164062 C 92.179688 50.167969 92.25 45.171875 92.347656 40.171875 Z M 92.347656 40.171875 "/>
<path style=" stroke:none;fill-rule:nonzero;fill:rgb(98.823529%,63.921571%,1.176471%);fill-opacity:1;" d="M 210.738281 40.171875 C 210.839844 45.273438 210.910156 50.371094 210.96875 55.46875 C 210.972656 56.050781 210.980469 56.636719 210.988281 57.21875 C 211.003906 58.859375 211.023438 60.5 211.042969 62.140625 C 211.042969 62.246094 211.042969 62.347656 211.042969 62.457031 C 211.046875 62.664062 211.050781 62.875 211.050781 63.085938 C 211.050781 63.1875 211.054688 63.292969 211.054688 63.398438 C 211.054688 63.503906 211.058594 63.605469 211.058594 63.714844 C 211.074219 65.28125 211.09375 66.851562 211.109375 68.417969 C 211.136719 70.867188 211.164062 73.316406 211.191406 75.765625 C 211.191406 75.863281 211.195312 75.964844 211.195312 76.066406 C 211.265625 82.855469 211.304688 89.644531 211.273438 96.433594 C 211.125 96.375 211.125 96.375 210.972656 96.316406 C 210.777344 96.238281 210.777344 96.238281 210.574219 96.160156 C 210.445312 96.109375 210.3125 96.058594 210.179688 96.003906 C 201.890625 92.816406 191.363281 94.027344 182.765625 95.886719 C 174.65625 97.679688 166.324219 100.457031 160.03125 104.621094 C 159.761719 104.796875 159.488281 104.964844 159.210938 105.128906 C 158.71875 105.4375 158.273438 105.773438 157.828125 106.117188 C 157.761719 106.167969 157.691406 106.21875 157.625 106.273438 C 157.277344 106.542969 156.96875 106.816406 156.679688 107.121094 C 156.578125 107.21875 156.480469 107.316406 156.375 107.417969 C 156.289062 107.417969 156.199219 107.417969 156.105469 107.417969 C 156.128906 107.304688 156.152344 107.191406 156.175781 107.074219 C 156.636719 104.714844 157.09375 102.355469 157.546875 99.992188 C 157.621094 99.601562 157.695312 99.210938 157.769531 98.824219 C 157.789062 98.722656 157.789062 98.722656 157.808594 98.625 C 157.859375 98.359375 157.910156 98.09375 157.960938 97.828125 C 158.101562 97.09375 158.242188 96.363281 158.382812 95.628906 C 158.933594 92.730469 159.5 89.835938 160.128906 86.945312 C 160.171875 86.753906 160.214844 86.558594 160.257812 86.363281 C 162.0625 78.042969 164.628906 69.714844 175.4375 56.070312 C 175.5625 55.953125 175.5625 55.953125 175.691406 55.832031 C 177.46875 54.214844 179.394531 52.558594 181.585938 51.214844 C 181.988281 50.96875 182.378906 50.714844 182.769531 50.457031 C 185.046875 48.988281 187.59375 47.683594 190.203125 46.53125 C 190.308594 46.484375 190.417969 46.4375 190.53125 46.386719 C 192.558594 45.492188 194.652344 44.695312 196.777344 43.929688 C 196.902344 43.886719 197.027344 43.839844 197.15625 43.792969 C 199.929688 42.800781 202.816406 42.003906 205.730469 41.246094 C 205.832031 41.21875 205.929688 41.191406 206.035156 41.167969 C 207.097656 40.890625 208.164062 40.625 209.238281 40.378906 C 209.328125 40.355469 209.417969 40.335938 209.507812 40.316406 C 209.945312 40.214844 210.273438 40.171875 210.738281 40.171875 Z M 210.738281 40.171875 "/>
<path style=" stroke:none;fill-rule:nonzero;fill:rgb(1.176471%,40.000001%,99.607843%);fill-opacity:1;" d="M 151.542969 6.839844 C 151.847656 6.90625 152.152344 6.972656 152.457031 7.042969 C 152.800781 7.117188 153.144531 7.195312 153.488281 7.273438 C 153.675781 7.316406 153.867188 7.363281 154.058594 7.40625 C 154.464844 7.496094 154.875 7.589844 155.28125 7.683594 C 155.933594 7.832031 156.589844 7.976562 157.242188 8.125 C 158.039062 8.308594 158.835938 8.488281 159.636719 8.667969 C 161.746094 9.148438 163.855469 9.625 165.964844 10.101562 C 166.269531 10.171875 166.574219 10.238281 166.878906 10.308594 C 174.425781 12.015625 181.976562 13.714844 189.53125 15.414062 C 189.53125 15.476562 189.53125 15.542969 189.53125 15.605469 C 188.941406 15.800781 188.355469 15.992188 187.765625 16.183594 C 187.566406 16.25 187.367188 16.3125 187.167969 16.378906 C 186.878906 16.472656 186.59375 16.566406 186.304688 16.660156 C 186.214844 16.691406 186.125 16.71875 186.035156 16.75 C 185.398438 16.957031 185.398438 16.957031 185.101562 16.957031 C 185.101562 17.992188 185.109375 19.027344 185.117188 20.0625 C 185.121094 20.542969 185.125 21.027344 185.125 21.507812 C 185.128906 21.96875 185.132812 22.433594 185.136719 22.898438 C 185.140625 23.074219 185.140625 23.253906 185.140625 23.429688 C 185.136719 23.679688 185.140625 23.925781 185.144531 24.175781 C 185.144531 24.246094 185.144531 24.320312 185.144531 24.394531 C 185.152344 24.769531 185.183594 24.917969 185.566406 25.179688 C 185.675781 25.234375 185.789062 25.285156 185.90625 25.335938 C 186.265625 25.730469 186.25 26.132812 186.175781 26.589844 C 185.960938 26.945312 185.710938 27.175781 185.234375 27.359375 C 184.433594 27.492188 183.945312 27.488281 183.222656 27.167969 C 182.839844 26.855469 182.699219 26.566406 182.617188 26.15625 C 182.703125 25.722656 182.867188 25.503906 183.222656 25.144531 C 183.398438 25.082031 183.574219 25.015625 183.757812 24.953125 C 183.800781 22.472656 183.847656 19.992188 183.894531 17.4375 C 182.386719 17.945312 180.878906 18.453125 179.328125 18.980469 C 176.984375 19.746094 176.984375 19.746094 176.0625 20.042969 C 174.761719 20.46875 173.46875 20.898438 172.171875 21.328125 C 170.445312 21.898438 168.71875 22.46875 166.980469 23.023438 C 166.980469 23.460938 167.152344 23.789062 167.355469 24.191406 C 168.746094 27.097656 168.519531 30.355469 166.671875 33.132812 C 164.59375 36.125 161.191406 38.3125 156.804688 39.417969 C 152.574219 40.417969 147.875 40.121094 143.90625 38.703125 C 140.03125 37.253906 136.972656 34.730469 135.632812 31.734375 C 134.445312 28.898438 134.5 25.621094 136.375 22.929688 C 136.214844 22.894531 136.054688 22.859375 135.890625 22.828125 C 135.335938 22.695312 134.835938 22.523438 134.320312 22.332031 C 133.367188 21.984375 132.394531 21.691406 131.402344 21.40625 C 130.972656 21.285156 130.546875 21.160156 130.117188 21.039062 C 129.886719 20.972656 129.652344 20.902344 129.421875 20.835938 C 128.128906 20.464844 126.835938 20.085938 125.546875 19.707031 C 124.992188 19.546875 124.441406 19.382812 123.886719 19.222656 C 123.605469 19.140625 123.324219 19.054688 123.042969 18.972656 C 122 18.667969 120.960938 18.363281 119.917969 18.058594 C 119.472656 17.929688 119.027344 17.796875 118.578125 17.667969 C 118.292969 17.582031 118.007812 17.5 117.722656 17.417969 C 114.886719 16.585938 114.886719 16.585938 113.558594 16.183594 C 113.746094 15.917969 113.9375 15.910156 114.328125 15.808594 C 114.535156 15.757812 114.535156 15.757812 114.746094 15.703125 C 114.898438 15.664062 115.050781 15.625 115.207031 15.585938 C 115.453125 15.519531 115.695312 15.457031 115.941406 15.394531 C 116.203125 15.328125 116.46875 15.261719 116.730469 15.191406 C 117.285156 15.050781 117.839844 14.910156 118.394531 14.765625 C 119.070312 14.59375 119.746094 14.417969 120.421875 14.246094 C 121.625 13.9375 122.824219 13.628906 124.023438 13.320312 C 124.109375 13.296875 124.195312 13.273438 124.285156 13.25 C 124.714844 13.140625 125.144531 13.027344 125.578125 12.917969 C 126.09375 12.78125 126.609375 12.648438 127.125 12.515625 C 129.285156 11.957031 131.441406 11.398438 133.597656 10.835938 C 135.105469 10.445312 136.617188 10.054688 138.128906 9.660156 C 138.394531 9.59375 138.65625 9.527344 138.921875 9.457031 C 139.71875 9.25 140.511719 9.046875 141.3125 8.839844 C 142.964844 8.414062 144.617188 7.984375 146.257812 7.53125 C 146.632812 7.425781 147.007812 7.324219 147.386719 7.21875 C 147.722656 7.125 148.058594 7.027344 148.398438 6.933594 C 148.601562 6.875 148.804688 6.820312 149.007812 6.765625 C 149.09375 6.738281 149.179688 6.710938 149.269531 6.683594 C 150.09375 6.464844 150.738281 6.648438 151.542969 6.839844 Z M 151.542969 6.839844 "/>
<path style=" stroke:none;fill-rule:nonzero;fill:rgb(0.784314%,40.000001%,99.607843%);fill-opacity:1;" d="M 208.691406 37.667969 C 208.792969 37.675781 208.890625 37.683594 208.992188 37.691406 C 209.277344 37.714844 209.558594 37.742188 209.839844 37.765625 C 210 37.777344 210.160156 37.792969 210.328125 37.808594 C 210.695312 37.855469 210.953125 37.917969 211.273438 38.054688 C 211.199219 38.070312 211.125 38.085938 211.046875 38.105469 C 205.941406 39.242188 200.933594 40.542969 196.105469 42.195312 C 195.96875 42.242188 195.828125 42.292969 195.6875 42.339844 C 190.847656 44.003906 186.253906 46.070312 182.148438 48.554688 C 182.078125 48.597656 182.007812 48.640625 181.933594 48.683594 C 179.972656 49.863281 178.015625 51.101562 176.347656 52.5 C 176.183594 52.636719 176.015625 52.769531 175.84375 52.902344 C 174.945312 53.59375 174.15625 54.339844 173.367188 55.09375 C 173.171875 55.28125 172.972656 55.46875 172.777344 55.65625 C 171.105469 57.253906 169.65625 58.945312 168.320312 60.695312 C 168.253906 60.785156 168.183594 60.875 168.109375 60.972656 C 166.1875 63.507812 164.671875 66.15625 163.355469 68.882812 C 163.300781 69 163.242188 69.113281 163.183594 69.234375 C 160.371094 75.117188 158.808594 81.292969 157.496094 87.425781 C 157.484375 87.492188 157.46875 87.558594 157.453125 87.625 C 156.730469 91.003906 156.089844 94.386719 155.453125 97.773438 C 155.210938 99.058594 154.96875 100.347656 154.726562 101.632812 C 154.710938 101.707031 154.699219 101.777344 154.683594 101.851562 C 154.214844 104.324219 153.710938 106.789062 153.15625 109.25 C 153.109375 109.25 153.066406 109.25 153.019531 109.25 C 153.007812 104.179688 152.992188 99.109375 152.984375 94.039062 C 152.984375 93.925781 152.984375 93.925781 152.984375 93.808594 C 152.984375 92.175781 152.980469 90.542969 152.980469 88.914062 C 152.976562 88.113281 152.976562 87.3125 152.976562 86.511719 C 152.976562 86.429688 152.976562 86.351562 152.976562 86.269531 C 152.972656 83.6875 152.964844 81.109375 152.957031 78.53125 C 152.949219 75.878906 152.945312 73.226562 152.945312 70.570312 C 152.945312 70.195312 152.945312 69.820312 152.945312 69.445312 C 152.945312 69.375 152.945312 69.300781 152.945312 69.222656 C 152.941406 68.039062 152.9375 66.851562 152.933594 65.667969 C 152.929688 64.472656 152.925781 63.277344 152.929688 62.085938 C 152.929688 61.4375 152.929688 60.792969 152.925781 60.148438 C 152.921875 59.554688 152.921875 58.960938 152.921875 58.371094 C 152.921875 58.15625 152.921875 57.941406 152.917969 57.730469 C 152.898438 55.980469 153.355469 54.449219 154.40625 52.867188 C 154.457031 52.785156 154.507812 52.707031 154.558594 52.625 C 156.597656 49.527344 159.722656 46.714844 163.488281 44.605469 C 163.570312 44.558594 163.652344 44.511719 163.734375 44.464844 C 171.425781 40.074219 180.832031 38.179688 190.46875 37.476562 C 190.625 37.464844 190.78125 37.453125 190.941406 37.441406 C 196.8125 37.027344 202.839844 37.191406 208.691406 37.667969 Z M 208.691406 37.667969 "/>
<path style=" stroke:none;fill-rule:nonzero;fill:rgb(0.784314%,40.000001%,99.607843%);fill-opacity:1;" d="M 104.808594 37.265625 C 104.96875 37.265625 105.132812 37.265625 105.300781 37.265625 C 107.753906 37.269531 110.179688 37.296875 112.617188 37.476562 C 112.871094 37.492188 112.871094 37.492188 113.132812 37.511719 C 124.65625 38.332031 136.628906 41.261719 144.261719 47.832031 C 144.453125 48.007812 144.644531 48.183594 144.832031 48.363281 C 144.914062 48.4375 144.914062 48.4375 145 48.515625 C 147.140625 50.5 150.085938 53.546875 150.082031 56.171875 C 150.085938 56.289062 150.085938 56.289062 150.085938 56.40625 C 150.085938 56.492188 150.085938 56.574219 150.082031 56.664062 C 150.082031 56.753906 150.082031 56.84375 150.085938 56.9375 C 150.085938 57.242188 150.082031 57.550781 150.082031 57.855469 C 150.082031 58.078125 150.082031 58.296875 150.082031 58.519531 C 150.082031 59.128906 150.082031 59.738281 150.082031 60.34375 C 150.082031 60.933594 150.082031 61.523438 150.082031 62.109375 C 150.082031 63.316406 150.082031 64.519531 150.082031 65.722656 C 150.082031 66.914062 150.078125 68.109375 150.078125 69.300781 C 150.078125 69.375 150.078125 69.449219 150.078125 69.523438 C 150.078125 69.902344 150.078125 70.277344 150.078125 70.652344 C 150.078125 73.320312 150.078125 75.988281 150.078125 78.652344 C 150.074219 81.246094 150.074219 83.835938 150.074219 86.425781 C 150.074219 86.503906 150.074219 86.585938 150.074219 86.667969 C 150.074219 87.46875 150.074219 88.269531 150.074219 89.074219 C 150.074219 90.707031 150.074219 92.339844 150.074219 93.972656 C 150.074219 94.046875 150.074219 94.121094 150.074219 94.199219 C 150.070312 99.214844 150.070312 104.230469 150.066406 109.25 C 150.023438 109.25 149.980469 109.25 149.933594 109.25 C 149.757812 108.453125 149.582031 107.660156 149.414062 106.863281 C 149.398438 106.796875 149.382812 106.734375 149.371094 106.664062 C 148.882812 104.398438 148.441406 102.125 148.011719 99.851562 C 147.984375 99.714844 147.960938 99.578125 147.933594 99.445312 C 147.699219 98.199219 147.464844 96.957031 147.230469 95.710938 C 146.679688 92.753906 146.109375 89.796875 145.464844 86.847656 C 145.453125 86.785156 145.4375 86.71875 145.425781 86.65625 C 144.613281 82.917969 143.65625 79.207031 142.417969 75.53125 C 142.378906 75.417969 142.378906 75.417969 142.339844 75.300781 C 140.164062 68.890625 136.949219 62.488281 131.679688 57.03125 C 131.621094 56.972656 131.5625 56.914062 131.503906 56.851562 C 130.570312 55.871094 129.578125 54.9375 128.519531 54.027344 C 128.335938 53.867188 128.15625 53.707031 127.976562 53.546875 C 127.476562 53.097656 126.972656 52.675781 126.398438 52.277344 C 126.167969 52.113281 125.957031 51.941406 125.746094 51.765625 C 124.863281 51.03125 123.886719 50.335938 122.859375 49.707031 C 122.609375 49.554688 122.363281 49.398438 122.117188 49.242188 C 113.996094 44.09375 103.867188 40.726562 93.570312 38.488281 C 93.421875 38.457031 93.421875 38.457031 93.273438 38.425781 C 93.089844 38.386719 92.90625 38.34375 92.722656 38.304688 C 92.335938 38.222656 92.101562 38.167969 91.8125 37.957031 C 93.371094 37.753906 94.933594 37.617188 96.511719 37.511719 C 96.683594 37.5 96.855469 37.488281 97.035156 37.476562 C 99.625 37.308594 102.207031 37.261719 104.808594 37.265625 Z M 104.808594 37.265625 "/>
<path style=" stroke:none;fill-rule:nonzero;fill:rgb(98.039216%,63.529414%,1.176471%);fill-opacity:1;" d="M 152.929688 8.988281 C 153.234375 9.066406 153.542969 9.140625 153.847656 9.21875 C 154.003906 9.253906 154.15625 9.292969 154.3125 9.332031 C 154.882812 9.46875 155.457031 9.597656 156.03125 9.722656 C 156.574219 9.839844 157.113281 9.960938 157.652344 10.085938 C 157.757812 10.109375 157.863281 10.132812 157.972656 10.15625 C 158.207031 10.210938 158.4375 10.261719 158.671875 10.316406 C 159.921875 10.601562 161.175781 10.882812 162.425781 11.167969 C 162.765625 11.246094 163.109375 11.324219 163.449219 11.402344 C 163.953125 11.515625 164.453125 11.628906 164.957031 11.742188 C 165.105469 11.777344 165.257812 11.808594 165.414062 11.84375 C 166.300781 12.046875 167.1875 12.246094 168.074219 12.441406 C 168.601562 12.554688 169.128906 12.675781 169.65625 12.796875 C 169.8125 12.832031 169.8125 12.832031 169.976562 12.867188 C 170.699219 13.03125 171.425781 13.199219 172.148438 13.363281 C 173.1875 13.601562 174.226562 13.835938 175.265625 14.066406 C 175.890625 14.203125 176.507812 14.34375 177.128906 14.484375 C 177.777344 14.632812 178.425781 14.777344 179.074219 14.921875 C 179.46875 15.007812 179.863281 15.09375 180.257812 15.179688 C 180.453125 15.222656 180.652344 15.265625 180.851562 15.308594 C 181.128906 15.371094 181.410156 15.433594 181.6875 15.492188 C 181.851562 15.53125 182.011719 15.566406 182.179688 15.601562 C 182.550781 15.703125 182.550781 15.703125 182.683594 15.894531 C 176.589844 17.925781 176.589844 17.925781 174.042969 18.761719 C 173.839844 18.828125 173.636719 18.894531 173.4375 18.960938 C 173.335938 18.992188 173.238281 19.027344 173.136719 19.058594 C 172.492188 19.269531 171.855469 19.484375 171.214844 19.703125 C 170.777344 19.851562 170.339844 19.996094 169.902344 20.144531 C 169.695312 20.214844 169.488281 20.285156 169.28125 20.355469 C 168.996094 20.453125 168.710938 20.550781 168.421875 20.644531 C 168.296875 20.6875 168.296875 20.6875 168.167969 20.734375 C 167.59375 20.921875 167.59375 20.921875 167.207031 20.839844 C 166.859375 20.644531 166.648438 20.386719 166.410156 20.121094 C 165.152344 18.804688 163.496094 17.703125 161.609375 16.859375 C 161.527344 16.820312 161.441406 16.785156 161.355469 16.746094 C 160.066406 16.175781 158.753906 15.75 157.316406 15.414062 C 157.222656 15.390625 157.128906 15.371094 157.035156 15.347656 C 153.835938 14.589844 150.375 14.558594 147.113281 15.125 C 147.023438 15.140625 146.933594 15.15625 146.839844 15.171875 C 143.617188 15.742188 140.886719 16.9375 138.523438 18.59375 C 138.417969 18.664062 138.3125 18.734375 138.203125 18.804688 C 137.320312 19.402344 136.65625 20.09375 135.972656 20.808594 C 134.570312 20.4375 133.183594 20.046875 131.800781 19.640625 C 131.238281 19.472656 130.675781 19.304688 130.109375 19.140625 C 129.992188 19.101562 129.871094 19.066406 129.746094 19.03125 C 128.050781 18.53125 126.347656 18.03125 124.648438 17.535156 C 121.695312 16.671875 121.695312 16.671875 120.402344 16.28125 C 120.703125 16.035156 120.957031 15.933594 121.386719 15.828125 C 121.566406 15.785156 121.566406 15.785156 121.746094 15.742188 C 121.875 15.710938 122.007812 15.679688 122.140625 15.648438 C 122.421875 15.582031 122.703125 15.511719 122.984375 15.441406 C 123.132812 15.40625 123.28125 15.371094 123.4375 15.332031 C 124.199219 15.148438 124.957031 14.953125 125.714844 14.757812 C 125.871094 14.71875 126.027344 14.675781 126.191406 14.636719 C 127.488281 14.300781 128.777344 13.960938 130.070312 13.621094 C 131.460938 13.253906 132.851562 12.894531 134.246094 12.535156 C 134.355469 12.507812 134.464844 12.480469 134.578125 12.449219 C 134.691406 12.421875 134.800781 12.394531 134.914062 12.363281 C 135.140625 12.304688 135.363281 12.25 135.585938 12.191406 C 135.699219 12.164062 135.808594 12.132812 135.921875 12.105469 C 137.265625 11.757812 138.609375 11.410156 139.949219 11.0625 C 140.148438 11.011719 140.347656 10.960938 140.542969 10.910156 C 140.691406 10.871094 140.691406 10.871094 140.84375 10.832031 C 141.457031 10.671875 142.074219 10.511719 142.691406 10.351562 C 143.007812 10.269531 143.324219 10.191406 143.640625 10.109375 C 144.050781 10 144.460938 9.894531 144.871094 9.789062 C 145.769531 9.558594 146.664062 9.324219 147.550781 9.070312 C 147.695312 9.027344 147.84375 8.988281 147.992188 8.945312 C 148.257812 8.871094 148.519531 8.792969 148.78125 8.714844 C 150.273438 8.289062 151.46875 8.621094 152.929688 8.988281 Z M 152.929688 8.988281 "/>
<path style=" stroke:none;fill-rule:nonzero;fill:rgb(1.568628%,40.392157%,99.607843%);fill-opacity:1;" d="M 128.726562 114.546875 C 131.605469 114.546875 134.484375 114.546875 137.449219 114.546875 C 138.382812 116.664062 138.382812 116.664062 138.78125 117.6875 C 138.808594 117.761719 138.835938 117.832031 138.867188 117.910156 C 138.894531 117.984375 138.925781 118.0625 138.957031 118.140625 C 139.019531 118.300781 139.082031 118.460938 139.144531 118.625 C 139.3125 119.042969 139.476562 119.464844 139.640625 119.886719 C 139.804688 120.308594 139.972656 120.734375 140.140625 121.15625 C 140.722656 122.648438 141.304688 124.136719 141.878906 125.625 C 142.660156 123.828125 143.375 122.019531 144.082031 120.207031 C 144.257812 119.753906 144.433594 119.296875 144.613281 118.84375 C 144.75 118.492188 144.890625 118.140625 145.027344 117.785156 C 145.449219 116.703125 145.878906 115.625 146.308594 114.546875 C 149.230469 114.546875 152.15625 114.546875 155.167969 114.546875 C 155.167969 119.792969 155.167969 125.039062 155.167969 130.441406 C 153.21875 130.441406 151.269531 130.441406 149.261719 130.441406 C 149.21875 126.914062 149.171875 123.386719 149.128906 119.75 C 148.152344 122.304688 148.152344 122.304688 147.179688 124.859375 C 146.027344 127.882812 146.027344 127.882812 145.480469 129.296875 C 145.441406 129.394531 145.402344 129.492188 145.363281 129.589844 C 145.332031 129.675781 145.296875 129.761719 145.261719 129.851562 C 145.234375 129.925781 145.207031 130 145.175781 130.074219 C 145.101562 130.25 145.101562 130.25 144.964844 130.441406 C 142.972656 130.441406 140.980469 130.441406 138.925781 130.441406 C 138.472656 129.574219 138.472656 129.574219 138.332031 129.203125 C 138.300781 129.117188 138.269531 129.035156 138.234375 128.949219 C 138.203125 128.855469 138.167969 128.765625 138.132812 128.675781 C 138.09375 128.574219 138.058594 128.476562 138.019531 128.375 C 137.898438 128.058594 137.78125 127.742188 137.660156 127.425781 C 137.585938 127.230469 137.511719 127.035156 137.4375 126.835938 C 137.164062 126.113281 136.890625 125.386719 136.617188 124.664062 C 136.007812 123.042969 135.394531 121.421875 134.765625 119.75 C 134.722656 123.277344 134.675781 126.808594 134.632812 130.441406 C 132.683594 130.441406 130.734375 130.441406 128.726562 130.441406 C 128.726562 125.199219 128.726562 119.953125 128.726562 114.546875 Z M 128.726562 114.546875 "/>
<path style=" stroke:none;fill-rule:nonzero;fill:rgb(1.568628%,40.392157%,99.607843%);fill-opacity:1;" d="M 84.296875 114.546875 C 86.421875 114.542969 88.546875 114.535156 90.738281 114.527344 C 91.40625 114.527344 92.074219 114.523438 92.761719 114.519531 C 93.585938 114.519531 93.585938 114.519531 93.972656 114.519531 C 94.242188 114.519531 94.507812 114.519531 94.773438 114.515625 C 97.339844 114.503906 100.074219 114.542969 102.144531 115.792969 C 104.414062 117.449219 104.207031 120.019531 104.203125 122.167969 C 104.203125 122.523438 104.207031 122.878906 104.210938 123.238281 C 104.226562 127.582031 104.226562 127.582031 102.175781 129.183594 C 100.167969 130.554688 97.390625 130.484375 94.808594 130.472656 C 94.539062 130.472656 94.269531 130.46875 94 130.46875 C 93.007812 130.46875 92.015625 130.464844 91.023438 130.460938 C 88.804688 130.457031 86.582031 130.449219 84.296875 130.441406 C 84.296875 125.199219 84.296875 119.953125 84.296875 114.546875 Z M 90.335938 118.207031 C 90.335938 121.070312 90.335938 123.929688 90.335938 126.878906 C 93.777344 127.121094 93.777344 127.121094 97.316406 126.371094 C 98.070312 125.625 98.007812 124.59375 98.007812 123.703125 C 98.007812 123.613281 98.011719 123.523438 98.011719 123.429688 C 98.011719 123.242188 98.011719 123.050781 98.011719 122.863281 C 98.011719 122.574219 98.015625 122.289062 98.015625 122.003906 C 98.144531 120.183594 98.144531 120.183594 97.179688 118.59375 C 95.324219 117.625 92.0625 118.207031 90.335938 118.207031 Z M 90.335938 118.207031 "/>
<path style=" stroke:none;fill-rule:nonzero;fill:rgb(1.568628%,40.392157%,99.607843%);fill-opacity:1;" d="M 275.945312 114.316406 C 276.367188 114.320312 276.789062 114.316406 277.210938 114.316406 C 279.78125 114.3125 282.453125 114.378906 284.429688 115.703125 C 286.695312 117.34375 286.46875 120.027344 286.46875 122.171875 C 286.46875 122.449219 286.46875 122.730469 286.472656 123.011719 C 286.476562 123.929688 286.445312 124.84375 286.324219 125.761719 C 286.316406 125.839844 286.304688 125.921875 286.292969 126.007812 C 286.117188 127.253906 285.597656 128.574219 284.300781 129.464844 C 284.039062 129.617188 283.777344 129.742188 283.488281 129.863281 C 283.363281 129.917969 283.363281 129.917969 283.234375 129.976562 C 282.078125 130.429688 280.703125 130.644531 279.390625 130.652344 C 279.246094 130.652344 279.101562 130.65625 278.957031 130.65625 C 278.800781 130.65625 278.648438 130.65625 278.492188 130.660156 C 278.332031 130.660156 278.171875 130.660156 278.003906 130.660156 C 277.667969 130.664062 277.328125 130.664062 276.988281 130.664062 C 276.644531 130.664062 276.300781 130.667969 275.957031 130.671875 C 270.480469 130.714844 270.480469 130.714844 268.355469 129.382812 C 266.914062 128.253906 266.433594 126.570312 266.421875 125.089844 C 266.421875 124.964844 266.417969 124.84375 266.417969 124.71875 C 266.417969 124.585938 266.417969 124.457031 266.414062 124.324219 C 266.414062 124.257812 266.414062 124.1875 266.414062 124.117188 C 266.414062 123.761719 266.410156 123.402344 266.410156 123.046875 C 266.410156 122.753906 266.410156 122.460938 266.40625 122.167969 C 266.355469 117.351562 266.355469 117.351562 268.195312 115.792969 C 270.238281 114.335938 273.25 114.304688 275.945312 114.316406 Z M 273.027344 118.796875 C 272.628906 119.578125 272.574219 120.363281 272.578125 121.1875 C 272.578125 121.292969 272.574219 121.402344 272.574219 121.511719 C 272.574219 121.738281 272.574219 121.960938 272.574219 122.1875 C 272.574219 122.53125 272.574219 122.871094 272.570312 123.210938 C 272.570312 123.433594 272.570312 123.652344 272.570312 123.875 C 272.566406 123.972656 272.566406 124.074219 272.566406 124.179688 C 272.570312 124.894531 272.605469 125.765625 273.183594 126.375 C 274.007812 126.933594 275.3125 126.910156 276.375 126.902344 C 276.488281 126.902344 276.601562 126.902344 276.714844 126.90625 C 277.667969 126.902344 278.554688 126.847656 279.378906 126.488281 C 280.238281 125.796875 280.195312 124.945312 280.1875 124.0625 C 280.1875 123.882812 280.1875 123.882812 280.1875 123.699219 C 280.1875 123.378906 280.1875 123.0625 280.183594 122.742188 C 280.183594 122.550781 280.183594 122.355469 280.1875 122.160156 C 280.1875 121.785156 280.1875 121.410156 280.1875 121.035156 C 280.1875 120.921875 280.1875 120.804688 280.191406 120.6875 C 280.179688 119.9375 280.164062 119.121094 279.421875 118.546875 C 278.4375 118.152344 277.5 118.171875 276.402344 118.171875 C 276.152344 118.167969 276.152344 118.167969 275.898438 118.164062 C 274.828125 118.164062 273.789062 118.199219 273.027344 118.796875 Z M 273.027344 118.796875 "/>
<path style=" stroke:none;fill-rule:nonzero;fill:rgb(1.176471%,40.392157%,99.607843%);fill-opacity:1;" d="M 245.367188 114.546875 C 247.148438 114.542969 248.929688 114.535156 250.761719 114.527344 C 251.597656 114.523438 251.597656 114.523438 252.449219 114.519531 C 253.144531 114.519531 253.144531 114.519531 253.472656 114.519531 C 253.691406 114.519531 253.914062 114.519531 254.136719 114.515625 C 260.039062 114.480469 260.039062 114.480469 262.03125 115.871094 C 262.9375 116.652344 263.261719 117.597656 263.265625 118.59375 C 263.269531 118.703125 263.269531 118.703125 263.269531 118.808594 C 263.269531 118.960938 263.269531 119.109375 263.269531 119.257812 C 263.273438 119.484375 263.277344 119.707031 263.28125 119.933594 C 263.296875 121.1875 263.058594 122.183594 261.796875 123.113281 C 261.214844 123.476562 260.613281 123.671875 259.867188 123.796875 C 259.988281 123.835938 260.113281 123.871094 260.238281 123.914062 C 261.351562 124.277344 262.414062 124.664062 262.925781 125.515625 C 263.21875 126.09375 263.273438 126.605469 263.261719 127.214844 C 263.261719 127.296875 263.261719 127.382812 263.257812 127.464844 C 263.257812 127.769531 263.25 128.074219 263.246094 128.378906 C 263.238281 129.058594 263.230469 129.742188 263.222656 130.441406 C 261.183594 130.441406 259.144531 130.441406 257.046875 130.441406 C 257.003906 128.695312 257.003906 128.695312 256.996094 128.148438 C 256.992188 128.003906 256.984375 127.859375 256.980469 127.714844 C 256.980469 127.640625 256.980469 127.566406 256.980469 127.492188 C 256.960938 127.03125 256.886719 126.691406 256.511719 126.300781 C 255.910156 126.007812 255.402344 125.972656 254.6875 125.960938 C 254.429688 125.957031 254.429688 125.957031 254.164062 125.953125 C 253.945312 125.949219 253.730469 125.949219 253.507812 125.945312 C 252.816406 125.933594 252.121094 125.925781 251.410156 125.914062 C 251.410156 127.410156 251.410156 128.902344 251.410156 130.441406 C 249.417969 130.441406 247.421875 130.441406 245.367188 130.441406 C 245.367188 125.199219 245.367188 119.953125 245.367188 114.546875 Z M 251.410156 118.207031 C 251.410156 119.511719 251.410156 120.816406 251.410156 122.15625 C 252.101562 122.164062 252.792969 122.167969 253.507812 122.175781 C 253.832031 122.179688 253.832031 122.179688 254.164062 122.183594 C 254.335938 122.183594 254.507812 122.183594 254.6875 122.1875 C 254.863281 122.1875 255.039062 122.1875 255.21875 122.191406 C 255.839844 122.148438 256.277344 122.007812 256.753906 121.722656 C 257.214844 121.308594 257.082031 120.703125 257.089844 120.199219 C 257.09375 120.101562 257.097656 120.003906 257.101562 119.898438 C 257.105469 119.324219 257.09375 118.933594 256.511719 118.496094 C 255.882812 118.222656 255.417969 118.171875 254.6875 118.179688 C 254.515625 118.179688 254.339844 118.179688 254.164062 118.183594 C 253.945312 118.183594 253.730469 118.1875 253.507812 118.191406 C 252.816406 118.195312 252.121094 118.203125 251.410156 118.207031 Z M 251.410156 118.207031 "/>
<path style=" stroke:none;fill-rule:nonzero;fill:rgb(1.568628%,40.392157%,99.607843%);fill-opacity:1;" d="M 197.832031 114.335938 C 197.984375 114.335938 198.136719 114.332031 198.292969 114.332031 C 198.613281 114.332031 198.929688 114.332031 199.25 114.332031 C 199.734375 114.332031 200.21875 114.328125 200.703125 114.324219 C 203.164062 114.316406 205.621094 114.320312 207.539062 115.589844 C 208.855469 116.707031 208.726562 117.816406 208.726562 119.269531 C 206.820312 119.269531 204.914062 119.269531 202.953125 119.269531 C 202.820312 118.917969 202.6875 118.570312 202.550781 118.207031 C 201.800781 117.8125 200.902344 117.875 200 117.882812 C 199.859375 117.882812 199.71875 117.878906 199.570312 117.878906 C 198.765625 117.882812 198.144531 117.90625 197.449219 118.207031 C 197.140625 118.496094 197.148438 118.765625 197.15625 119.125 C 197.15625 119.257812 197.15625 119.257812 197.160156 119.398438 C 197.179688 119.726562 197.179688 119.726562 197.316406 120.039062 C 198.894531 120.585938 200.976562 120.601562 202.703125 120.71875 C 203.789062 120.796875 204.820312 120.90625 205.863281 121.136719 C 205.949219 121.15625 206.035156 121.175781 206.125 121.195312 C 207.410156 121.5 208.320312 122.027344 208.976562 122.871094 C 209.324219 123.449219 209.4375 123.980469 209.441406 124.601562 C 209.441406 124.714844 209.441406 124.714844 209.445312 124.828125 C 209.445312 124.988281 209.445312 125.148438 209.445312 125.304688 C 209.445312 125.546875 209.453125 125.785156 209.457031 126.023438 C 209.46875 127.253906 209.277344 128.355469 208.054688 129.285156 C 206.636719 130.316406 205.300781 130.652344 203.300781 130.667969 C 203.121094 130.667969 202.941406 130.667969 202.761719 130.667969 C 202.570312 130.667969 202.382812 130.667969 202.191406 130.671875 C 201.796875 130.671875 201.402344 130.671875 201.007812 130.671875 C 200.507812 130.671875 200.007812 130.675781 199.507812 130.675781 C 199.117188 130.679688 198.726562 130.679688 198.335938 130.679688 C 198.0625 130.679688 197.792969 130.683594 197.519531 130.683594 C 195.929688 130.679688 194.109375 130.511719 192.75 129.863281 C 192.671875 129.828125 192.589844 129.792969 192.507812 129.753906 C 191.585938 129.265625 191.054688 128.449219 190.871094 127.648438 C 190.863281 127.480469 190.859375 127.308594 190.859375 127.136719 C 190.859375 127.054688 190.859375 126.96875 190.859375 126.882812 C 190.863281 126.773438 190.863281 126.667969 190.863281 126.558594 C 190.867188 126.050781 190.867188 126.050781 190.871094 125.53125 C 192.777344 125.53125 194.683594 125.53125 196.644531 125.53125 C 196.734375 125.847656 196.820312 126.164062 196.914062 126.492188 C 197.273438 126.863281 197.660156 126.949219 198.253906 127.070312 C 198.878906 127.109375 199.5 127.101562 200.125 127.101562 C 200.292969 127.101562 200.460938 127.105469 200.632812 127.105469 C 201.851562 127.105469 201.851562 127.105469 202.953125 126.78125 C 203.390625 126.238281 203.304688 125.492188 203.160156 124.890625 C 202.828125 124.527344 202.3125 124.480469 201.746094 124.375 C 201.246094 124.308594 200.746094 124.269531 200.246094 124.234375 C 199.957031 124.210938 199.667969 124.183594 199.378906 124.160156 C 198.929688 124.125 198.480469 124.089844 198.03125 124.054688 C 193.269531 123.683594 193.269531 123.683594 191.894531 122.464844 C 191.015625 121.550781 190.976562 120.503906 190.96875 119.429688 C 190.964844 119.289062 190.960938 119.152344 190.957031 119.015625 C 190.917969 117.664062 191.195312 116.460938 192.484375 115.414062 C 193.90625 114.394531 195.9375 114.339844 197.832031 114.335938 Z M 197.832031 114.335938 "/>
<path style=" stroke:none;fill-rule:nonzero;fill:rgb(1.568628%,40.784314%,99.607843%);fill-opacity:1;" d="M 66.175781 114.546875 C 69.230469 114.546875 72.289062 114.546875 75.4375 114.546875 C 75.679688 115.015625 75.902344 115.449219 76.085938 115.921875 C 76.128906 116.039062 76.171875 116.152344 76.21875 116.269531 C 76.265625 116.394531 76.3125 116.519531 76.363281 116.644531 C 76.414062 116.78125 76.464844 116.914062 76.515625 117.046875 C 76.628906 117.335938 76.738281 117.625 76.847656 117.910156 C 77.144531 118.6875 77.445312 119.464844 77.746094 120.242188 C 77.777344 120.320312 77.808594 120.402344 77.839844 120.484375 C 78.335938 121.777344 78.84375 123.070312 79.351562 124.363281 C 79.421875 124.535156 79.488281 124.707031 79.558594 124.882812 C 79.855469 125.636719 80.15625 126.390625 80.453125 127.148438 C 80.578125 127.460938 80.703125 127.769531 80.824219 128.082031 C 80.882812 128.226562 80.941406 128.371094 80.996094 128.515625 C 81.078125 128.714844 81.15625 128.914062 81.234375 129.113281 C 81.300781 129.277344 81.300781 129.277344 81.367188 129.449219 C 81.480469 129.777344 81.542969 130.109375 81.609375 130.441406 C 79.484375 130.441406 77.359375 130.441406 75.167969 130.441406 C 74.554688 129.015625 74.554688 129.015625 74.394531 128.550781 C 74.363281 128.460938 74.332031 128.367188 74.296875 128.273438 C 74.226562 128.035156 74.226562 128.035156 74.226562 127.746094 C 70.839844 127.792969 70.839844 127.792969 67.382812 127.84375 C 67.074219 128.699219 66.761719 129.558594 66.441406 130.441406 C 64.273438 130.441406 62.101562 130.441406 59.867188 130.441406 C 60.1875 129.519531 60.511719 128.601562 60.878906 127.6875 C 60.921875 127.578125 60.964844 127.46875 61.011719 127.355469 C 61.15625 126.992188 61.300781 126.632812 61.445312 126.273438 C 61.546875 126.015625 61.648438 125.761719 61.75 125.507812 C 61.964844 124.972656 62.175781 124.441406 62.390625 123.90625 C 62.636719 123.296875 62.878906 122.6875 63.121094 122.082031 C 63.386719 121.421875 63.648438 120.765625 63.910156 120.109375 C 63.984375 119.921875 64.058594 119.738281 64.132812 119.554688 C 64.273438 119.203125 64.414062 118.851562 64.554688 118.5 C 64.59375 118.398438 64.632812 118.300781 64.675781 118.199219 C 65.164062 116.980469 65.671875 115.765625 66.175781 114.546875 Z M 70.738281 117.917969 C 70.390625 118.625 70.132812 119.339844 69.886719 120.070312 C 69.824219 120.25 69.824219 120.25 69.761719 120.433594 C 69.675781 120.6875 69.589844 120.9375 69.503906 121.191406 C 69.390625 121.515625 69.28125 121.84375 69.171875 122.167969 C 69.066406 122.476562 68.957031 122.785156 68.851562 123.097656 C 68.8125 123.214844 68.773438 123.332031 68.734375 123.453125 C 68.695312 123.558594 68.660156 123.664062 68.621094 123.777344 C 68.589844 123.871094 68.558594 123.964844 68.523438 124.0625 C 68.453125 124.257812 68.453125 124.257812 68.457031 124.375 C 69.960938 124.375 71.46875 124.375 73.019531 124.375 C 72.9375 123.847656 72.867188 123.398438 72.699219 122.894531 C 72.640625 122.726562 72.640625 122.726562 72.585938 122.554688 C 72.523438 122.378906 72.523438 122.378906 72.460938 122.199219 C 72.421875 122.078125 72.378906 121.953125 72.335938 121.828125 C 72.226562 121.503906 72.117188 121.179688 72.003906 120.855469 C 71.890625 120.527344 71.78125 120.195312 71.667969 119.863281 C 71.449219 119.214844 71.226562 118.566406 71.007812 117.917969 C 70.917969 117.917969 70.828125 117.917969 70.738281 117.917969 Z M 70.738281 117.917969 "/>
<path style=" stroke:none;fill-rule:nonzero;fill:rgb(1.568628%,40.392157%,99.607843%);fill-opacity:1;" d="M 23.453125 114.535156 C 23.621094 114.535156 23.785156 114.535156 23.953125 114.535156 C 24.089844 114.535156 24.089844 114.535156 24.226562 114.535156 C 24.527344 114.535156 24.828125 114.535156 25.125 114.539062 C 25.332031 114.539062 25.542969 114.539062 25.75 114.539062 C 26.296875 114.539062 26.84375 114.539062 27.390625 114.539062 C 27.949219 114.542969 28.503906 114.542969 29.0625 114.542969 C 30.160156 114.542969 31.253906 114.546875 32.347656 114.546875 C 33.246094 116.828125 34.140625 119.105469 35.035156 121.386719 C 35.066406 121.476562 35.101562 121.5625 35.136719 121.65625 C 35.597656 122.824219 36.054688 123.996094 36.515625 125.167969 C 36.652344 125.515625 36.789062 125.863281 36.925781 126.214844 C 37.085938 126.628906 37.246094 127.039062 37.410156 127.453125 C 37.46875 127.605469 37.527344 127.757812 37.589844 127.910156 C 37.671875 128.121094 37.753906 128.328125 37.835938 128.539062 C 37.878906 128.65625 37.925781 128.773438 37.972656 128.894531 C 38.167969 129.410156 38.34375 129.925781 38.523438 130.441406 C 36.351562 130.441406 34.183594 130.441406 31.945312 130.441406 C 31.636719 129.585938 31.328125 128.726562 31.007812 127.84375 C 28.746094 127.808594 26.488281 127.777344 24.160156 127.746094 C 24.074219 128.0625 23.984375 128.382812 23.894531 128.710938 C 23.671875 129.28125 23.449219 129.855469 23.222656 130.441406 C 21.050781 130.441406 18.878906 130.441406 16.644531 130.441406 C 17.398438 128.546875 17.398438 128.546875 17.667969 127.875 C 18.101562 126.785156 18.535156 125.691406 18.972656 124.597656 C 19.226562 123.957031 19.480469 123.3125 19.738281 122.671875 C 19.894531 122.277344 20.050781 121.878906 20.210938 121.480469 C 20.597656 120.503906 20.988281 119.523438 21.382812 118.542969 C 21.480469 118.292969 21.582031 118.042969 21.679688 117.789062 C 21.851562 117.359375 22.023438 116.929688 22.199219 116.5 C 22.261719 116.335938 22.328125 116.171875 22.394531 116.007812 C 22.484375 115.78125 22.578125 115.550781 22.667969 115.324219 C 22.695312 115.257812 22.722656 115.191406 22.75 115.121094 C 22.980469 114.550781 22.980469 114.550781 23.453125 114.535156 Z M 27.515625 117.917969 C 27.234375 118.703125 26.957031 119.488281 26.675781 120.273438 C 26.546875 120.636719 26.417969 121.003906 26.285156 121.367188 C 26.160156 121.71875 26.035156 122.070312 25.910156 122.421875 C 25.863281 122.554688 25.816406 122.691406 25.765625 122.824219 C 25.699219 123.011719 25.632812 123.199219 25.566406 123.386719 C 25.527344 123.496094 25.488281 123.601562 25.449219 123.710938 C 25.351562 124.003906 25.351562 124.003906 25.367188 124.375 C 26.875 124.375 28.382812 124.375 29.933594 124.375 C 29.5625 123.085938 29.160156 121.800781 28.730469 120.523438 C 28.628906 120.21875 28.53125 119.917969 28.429688 119.613281 C 28.367188 119.421875 28.300781 119.230469 28.238281 119.035156 C 28.207031 118.945312 28.175781 118.855469 28.144531 118.761719 C 28.117188 118.679688 28.089844 118.597656 28.0625 118.511719 C 28.039062 118.4375 28.011719 118.367188 27.988281 118.289062 C 27.925781 118.105469 27.925781 118.105469 27.785156 117.917969 C 27.695312 117.917969 27.609375 117.917969 27.515625 117.917969 Z M 27.515625 117.917969 "/>
<path style=" stroke:none;fill-rule:nonzero;fill:rgb(1.960784%,40.784314%,99.607843%);fill-opacity:1;" d="M 107.785156 114.546875 C 113.320312 114.546875 118.859375 114.546875 124.5625 114.546875 C 124.5625 115.753906 124.5625 116.964844 124.5625 118.207031 C 121.019531 118.207031 117.476562 118.207031 113.824219 118.207031 C 113.824219 119.066406 113.824219 119.925781 113.824219 120.808594 C 117.234375 120.808594 120.648438 120.808594 124.160156 120.808594 C 124.160156 121.859375 124.160156 122.90625 124.160156 123.988281 C 120.75 123.988281 117.339844 123.988281 113.824219 123.988281 C 113.824219 124.941406 113.824219 125.894531 113.824219 126.878906 C 117.457031 126.878906 121.089844 126.878906 124.832031 126.878906 C 124.832031 128.054688 124.832031 129.230469 124.832031 130.441406 C 119.207031 130.441406 113.582031 130.441406 107.785156 130.441406 C 107.785156 125.199219 107.785156 119.953125 107.785156 114.546875 Z M 107.785156 114.546875 "/>
<path style=" stroke:none;fill-rule:nonzero;fill:rgb(1.568628%,40.392157%,99.607843%);fill-opacity:1;" d="M 223.488281 114.546875 C 225.460938 114.542969 227.433594 114.535156 229.464844 114.527344 C 230.082031 114.527344 230.699219 114.523438 231.335938 114.519531 C 232.101562 114.519531 232.101562 114.519531 232.460938 114.519531 C 232.710938 114.519531 232.957031 114.519531 233.203125 114.515625 C 235.632812 114.503906 238.316406 114.558594 240.292969 115.71875 C 242.132812 117.058594 242.183594 118.949219 242.179688 120.710938 C 242.15625 122.222656 241.933594 123.699219 240.527344 124.902344 C 238.285156 126.445312 234.933594 126.316406 232.046875 126.304688 C 231.214844 126.304688 230.386719 126.300781 229.53125 126.300781 C 229.53125 127.667969 229.53125 129.035156 229.53125 130.441406 C 227.535156 130.441406 225.542969 130.441406 223.488281 130.441406 C 223.488281 125.199219 223.488281 119.953125 223.488281 114.546875 Z M 229.53125 118.207031 C 229.53125 119.671875 229.53125 121.132812 229.53125 122.640625 C 230.304688 122.644531 231.082031 122.652344 231.878906 122.65625 C 232.121094 122.660156 232.363281 122.664062 232.613281 122.664062 C 232.808594 122.667969 233.003906 122.667969 233.199219 122.667969 C 233.347656 122.671875 233.347656 122.671875 233.5 122.671875 C 234.230469 122.671875 234.773438 122.570312 235.4375 122.351562 C 236.191406 121.566406 236.136719 120.289062 235.902344 119.375 C 235.726562 118.964844 235.53125 118.65625 235.035156 118.402344 C 234.390625 118.210938 233.808594 118.183594 233.121094 118.1875 C 233.03125 118.191406 232.9375 118.191406 232.84375 118.191406 C 232.507812 118.191406 232.167969 118.195312 231.828125 118.195312 C 231.070312 118.199219 230.3125 118.203125 229.53125 118.207031 Z M 229.53125 118.207031 "/>
<path style=" stroke:none;fill-rule:nonzero;fill:rgb(1.960784%,40.784314%,99.607843%);fill-opacity:1;" d="M 48.996094 114.316406 C 49.328125 114.320312 49.664062 114.316406 49.996094 114.316406 C 52.4375 114.3125 55.050781 114.464844 56.886719 115.746094 C 58.425781 117.042969 58.523438 118.800781 58.523438 120.425781 C 56.53125 120.425781 54.535156 120.425781 52.484375 120.425781 C 52.351562 119.945312 52.21875 119.46875 52.082031 118.980469 C 51.285156 118.40625 50.804688 118.28125 49.726562 118.273438 C 49.570312 118.273438 49.570312 118.273438 49.414062 118.273438 C 49.308594 118.273438 49.207031 118.269531 49.101562 118.269531 C 48.289062 118.269531 47.488281 118.351562 46.863281 118.757812 C 46.375 119.476562 46.398438 120.226562 46.398438 121.011719 C 46.398438 121.128906 46.394531 121.25 46.394531 121.375 C 46.394531 121.628906 46.394531 121.882812 46.394531 122.136719 C 46.394531 122.394531 46.390625 122.652344 46.386719 122.914062 C 46.382812 123.289062 46.382812 123.664062 46.382812 124.039062 C 46.378906 124.152344 46.378906 124.265625 46.375 124.386719 C 46.378906 125.101562 46.484375 125.761719 46.980469 126.398438 C 47.792969 126.863281 49.082031 126.820312 50.066406 126.78125 C 50.808594 126.71875 51.445312 126.628906 51.945312 126.203125 C 52.332031 125.570312 52.386719 124.976562 52.484375 124.277344 C 54.519531 124.277344 56.558594 124.277344 58.65625 124.277344 C 58.65625 126.148438 58.5625 127.949219 56.675781 129.371094 C 54.796875 130.65625 52.273438 130.683594 49.835938 130.671875 C 49.40625 130.671875 48.976562 130.671875 48.542969 130.675781 C 46.109375 130.675781 43.59375 130.570312 41.746094 129.285156 C 39.96875 127.804688 39.847656 125.707031 39.84375 123.847656 C 39.84375 123.75 39.84375 123.648438 39.84375 123.542969 C 39.839844 123.332031 39.839844 123.121094 39.839844 122.90625 C 39.839844 122.589844 39.839844 122.269531 39.835938 121.953125 C 39.832031 121.003906 39.847656 120.0625 39.984375 119.117188 C 39.992188 119.046875 40.003906 118.976562 40.011719 118.902344 C 40.246094 117.484375 40.925781 116.230469 42.480469 115.296875 C 44.332031 114.355469 46.804688 114.304688 48.996094 114.316406 Z M 48.996094 114.316406 "/>
<path style=" stroke:none;fill-rule:nonzero;fill:rgb(1.960784%,40.784314%,99.607843%);fill-opacity:1;" d="M 178.648438 114.316406 C 178.984375 114.320312 179.320312 114.316406 179.652344 114.316406 C 182.042969 114.3125 184.789062 114.4375 186.578125 115.703125 C 188.171875 117.054688 188.1875 118.730469 188.1875 120.425781 C 186.195312 120.425781 184.203125 120.425781 182.148438 120.425781 C 182.058594 120.011719 181.96875 119.597656 181.878906 119.171875 C 181.609375 118.742188 181.457031 118.632812 180.863281 118.4375 C 180.253906 118.28125 179.691406 118.261719 179.050781 118.269531 C 178.949219 118.265625 178.847656 118.265625 178.742188 118.265625 C 177.945312 118.269531 177.324219 118.378906 176.667969 118.71875 C 175.984375 119.417969 176.085938 120.40625 176.085938 121.21875 C 176.085938 121.324219 176.082031 121.429688 176.082031 121.535156 C 176.082031 121.753906 176.082031 121.972656 176.082031 122.191406 C 176.082031 122.523438 176.078125 122.855469 176.078125 123.1875 C 176.078125 123.402344 176.078125 123.613281 176.078125 123.828125 C 176.074219 123.925781 176.074219 124.023438 176.074219 124.125 C 176.078125 124.964844 176.109375 125.832031 176.914062 126.492188 C 177.976562 126.914062 179.449219 126.886719 180.59375 126.660156 C 181.097656 126.539062 181.4375 126.429688 181.746094 126.109375 C 182.09375 125.433594 182.09375 125.433594 182.148438 124.277344 C 184.183594 124.277344 186.222656 124.277344 188.320312 124.277344 C 188.320312 127.992188 188.320312 127.992188 186.441406 129.382812 C 184.84375 130.375 182.882812 130.664062 180.820312 130.667969 C 180.617188 130.667969 180.617188 130.667969 180.410156 130.671875 C 180.125 130.671875 179.839844 130.671875 179.554688 130.671875 C 179.125 130.671875 178.695312 130.675781 178.265625 130.679688 C 175.871094 130.6875 173.464844 130.570312 171.578125 129.382812 C 169.824219 128.011719 169.644531 126.074219 169.636719 124.3125 C 169.636719 124.246094 169.636719 124.179688 169.636719 124.109375 C 169.632812 123.753906 169.632812 123.394531 169.632812 123.039062 C 169.632812 122.746094 169.628906 122.453125 169.625 122.160156 C 169.578125 117.351562 169.578125 117.351562 171.417969 115.792969 C 173.316406 114.4375 176.121094 114.304688 178.648438 114.316406 Z M 178.648438 114.316406 "/>
<path style=" stroke:none;fill-rule:nonzero;fill:rgb(0.392157%,40.000001%,99.607843%);fill-opacity:1;" d="M 159.730469 114.546875 C 161.726562 114.546875 163.71875 114.546875 165.773438 114.546875 C 165.773438 119.792969 165.773438 125.039062 165.773438 130.441406 C 163.777344 130.441406 161.785156 130.441406 159.730469 130.441406 C 159.730469 125.199219 159.730469 119.953125 159.730469 114.546875 Z M 159.730469 114.546875 "/>
<path style=" stroke:none;fill-rule:nonzero;fill:rgb(98.823529%,67.058825%,9.803922%);fill-opacity:1;" d="M 121.878906 135.742188 C 122.5 135.742188 123.121094 135.742188 123.757812 135.742188 C 124.199219 136.089844 124.410156 136.300781 124.679688 136.707031 C 124.75 136.796875 124.816406 136.890625 124.886719 136.984375 C 125.054688 137.210938 125.214844 137.4375 125.367188 137.667969 C 125.433594 137.605469 125.496094 137.539062 125.5625 137.472656 C 125.726562 137.308594 125.890625 137.148438 126.054688 136.984375 C 126.316406 136.714844 126.316406 136.714844 126.484375 136.425781 C 126.652344 136.164062 126.652344 136.164062 127.113281 135.742188 C 127.734375 135.742188 128.355469 135.742188 128.992188 135.742188 C 128.992188 137.425781 128.992188 139.113281 128.992188 140.847656 C 128.417969 140.847656 127.839844 140.847656 127.25 140.847656 C 127.203125 139.925781 127.160156 139.003906 127.113281 138.054688 C 126.644531 138.554688 126.644531 138.554688 126.179688 139.058594 C 126.121094 139.121094 126.0625 139.183594 126 139.25 C 125.910156 139.34375 125.910156 139.34375 125.820312 139.441406 C 125.636719 139.59375 125.636719 139.59375 125.234375 139.691406 C 124.703125 139.121094 124.171875 138.546875 123.625 137.957031 C 123.578125 138.910156 123.535156 139.863281 123.488281 140.847656 C 122.957031 140.847656 122.425781 140.847656 121.878906 140.847656 C 121.878906 139.164062 121.878906 137.476562 121.878906 135.742188 Z M 121.878906 135.742188 "/>
<path style=" stroke:none;fill-rule:nonzero;fill:rgb(98.823529%,66.666669%,9.019608%);fill-opacity:1;" d="M 200.941406 135.742188 C 202.550781 135.742188 202.550781 135.742188 202.980469 135.984375 C 203.089844 136.097656 203.195312 136.210938 203.296875 136.324219 C 203.355469 136.386719 203.414062 136.445312 203.472656 136.507812 C 203.597656 136.632812 203.71875 136.761719 203.839844 136.890625 C 204.09375 137.160156 204.367188 137.421875 204.636719 137.683594 C 204.929688 137.96875 205.214844 138.25 205.503906 138.535156 C 205.546875 137.613281 205.59375 136.691406 205.636719 135.742188 C 206.167969 135.742188 206.699219 135.742188 207.25 135.742188 C 207.25 137.425781 207.25 139.113281 207.25 140.847656 C 205.773438 140.847656 205.773438 140.847656 205.324219 140.554688 C 205.195312 140.425781 205.074219 140.289062 204.957031 140.15625 C 204.824219 140.015625 204.691406 139.875 204.558594 139.734375 C 204.492188 139.660156 204.425781 139.589844 204.359375 139.515625 C 204.054688 139.195312 203.722656 138.890625 203.390625 138.582031 C 203.105469 138.320312 203.105469 138.320312 202.820312 138.054688 C 202.773438 138.976562 202.730469 139.898438 202.683594 140.847656 C 202.109375 140.847656 201.53125 140.847656 200.941406 140.847656 C 200.941406 139.164062 200.941406 137.476562 200.941406 135.742188 Z M 200.941406 135.742188 "/>
<path style=" stroke:none;fill-rule:nonzero;fill:rgb(98.823529%,66.274512%,8.235294%);fill-opacity:1;" d="M 263.488281 135.742188 C 265.101562 135.742188 265.101562 135.742188 265.664062 136.132812 C 265.832031 136.304688 265.992188 136.476562 266.148438 136.652344 C 266.3125 136.820312 266.476562 136.992188 266.636719 137.164062 C 266.707031 137.238281 266.777344 137.316406 266.847656 137.394531 C 267.226562 137.785156 267.644531 138.160156 268.054688 138.535156 C 268.097656 137.613281 268.140625 136.691406 268.1875 135.742188 C 268.71875 135.742188 269.25 135.742188 269.796875 135.742188 C 269.796875 137.425781 269.796875 139.113281 269.796875 140.847656 C 268.320312 140.847656 268.320312 140.847656 267.808594 140.507812 C 267.65625 140.359375 267.507812 140.207031 267.367188 140.054688 C 267.292969 139.980469 267.21875 139.90625 267.144531 139.832031 C 266.90625 139.59375 266.675781 139.355469 266.441406 139.113281 C 266.042969 138.730469 265.644531 138.351562 265.234375 137.957031 C 265.191406 138.910156 265.144531 139.863281 265.101562 140.847656 C 264.570312 140.847656 264.039062 140.847656 263.488281 140.847656 C 263.488281 139.164062 263.488281 137.476562 263.488281 135.742188 Z M 263.488281 135.742188 "/>
<path style=" stroke:none;fill-rule:nonzero;fill:rgb(98.823529%,67.058825%,9.803922%);fill-opacity:1;" d="M 33.019531 135.742188 C 33.636719 135.734375 34.253906 135.730469 34.890625 135.722656 C 35.082031 135.722656 35.273438 135.71875 35.472656 135.714844 C 37.617188 135.707031 37.617188 135.707031 38.335938 136.171875 C 38.964844 136.691406 38.972656 137.078125 38.964844 137.746094 C 38.886719 138.378906 38.3125 138.6875 37.71875 139.113281 C 37.761719 139.160156 37.808594 139.203125 37.855469 139.253906 C 38.054688 139.457031 38.253906 139.664062 38.457031 139.871094 C 38.527344 139.945312 38.597656 140.015625 38.667969 140.089844 C 38.738281 140.160156 38.804688 140.226562 38.871094 140.300781 C 38.933594 140.363281 38.996094 140.425781 39.058594 140.492188 C 39.195312 140.65625 39.195312 140.65625 39.195312 140.847656 C 38.53125 140.941406 37.976562 140.96875 37.316406 140.847656 C 36.671875 140.464844 36.238281 139.921875 35.839844 139.402344 C 35.839844 139.339844 35.839844 139.277344 35.839844 139.210938 C 35.484375 139.210938 35.128906 139.210938 34.765625 139.210938 C 34.765625 139.75 34.765625 140.289062 34.765625 140.847656 C 34.1875 140.847656 33.613281 140.847656 33.019531 140.847656 C 33.019531 139.164062 33.019531 137.476562 33.019531 135.742188 Z M 34.765625 136.800781 C 34.765625 137.246094 34.765625 137.691406 34.765625 138.148438 C 36 138.253906 36 138.253906 37.105469 137.945312 C 37.34375 137.675781 37.34375 137.675781 37.339844 137.367188 C 37.210938 137.078125 37.210938 137.078125 36.871094 136.910156 C 36.15625 136.753906 35.511719 136.785156 34.765625 136.800781 Z M 34.765625 136.800781 "/>
<path style=" stroke:none;fill-rule:nonzero;fill:rgb(98.823529%,66.274512%,7.843138%);fill-opacity:1;" d="M 46.878906 136.109375 C 47.554688 136.496094 48.132812 136.957031 48.320312 137.570312 C 48.453125 138.46875 48.417969 139.238281 47.652344 139.980469 C 46.875 140.601562 45.933594 140.886719 44.78125 140.945312 C 43.648438 140.945312 42.726562 140.722656 41.878906 140.171875 C 40.949219 139.351562 40.8125 138.605469 40.941406 137.570312 C 41.210938 136.902344 41.738281 136.40625 42.550781 136.03125 C 44.011719 135.460938 45.460938 135.542969 46.878906 136.109375 Z M 42.910156 137.464844 C 42.550781 137.941406 42.492188 138.265625 42.691406 138.78125 C 42.921875 139.230469 43.210938 139.429688 43.757812 139.691406 C 44.390625 139.84375 44.902344 139.839844 45.527344 139.671875 C 46.015625 139.449219 46.320312 139.195312 46.578125 138.824219 C 46.648438 138.320312 46.664062 137.894531 46.359375 137.433594 C 45.835938 137.027344 45.414062 136.78125 44.632812 136.753906 C 43.835938 136.78125 43.402344 137.023438 42.910156 137.464844 Z M 42.910156 137.464844 "/>
<path style=" stroke:none;fill-rule:nonzero;fill:rgb(98.823529%,66.274512%,7.843138%);fill-opacity:1;" d="M 279.867188 135.742188 C 284.417969 135.742188 284.417969 135.742188 285.578125 136.542969 C 286.273438 137.128906 286.476562 137.777344 286.441406 138.535156 C 286.300781 139.207031 285.929688 139.800781 285.234375 140.269531 C 283.539062 141.066406 281.972656 140.847656 279.867188 140.847656 C 279.867188 139.164062 279.867188 137.476562 279.867188 135.742188 Z M 281.476562 136.800781 C 281.476562 137.753906 281.476562 138.710938 281.476562 139.691406 C 283.074219 139.792969 283.074219 139.792969 284.160156 139.304688 C 284.242188 139.253906 284.320312 139.199219 284.40625 139.144531 C 284.75 138.660156 284.761719 138.199219 284.539062 137.6875 C 284.203125 137.261719 283.976562 137.054688 283.339844 136.875 C 282.6875 136.769531 282.6875 136.769531 281.476562 136.800781 Z M 281.476562 136.800781 "/>
<path style=" stroke:none;fill-rule:nonzero;fill:rgb(98.823529%,67.058825%,9.411765%);fill-opacity:1;" d="M 64.917969 136.144531 C 65.019531 136.203125 65.125 136.261719 65.234375 136.320312 C 65.011719 136.699219 64.667969 136.972656 64.296875 137.285156 C 63.976562 137.195312 63.667969 137.109375 63.371094 136.988281 C 62.886719 136.832031 62.402344 136.855469 61.878906 136.898438 C 61.324219 137.066406 60.984375 137.300781 60.671875 137.667969 C 60.5 138.117188 60.503906 138.457031 60.6875 138.902344 C 61 139.28125 61.332031 139.496094 61.878906 139.691406 C 62.097656 139.703125 62.316406 139.707031 62.535156 139.710938 C 62.648438 139.710938 62.765625 139.710938 62.886719 139.714844 C 63.246094 139.691406 63.460938 139.644531 63.757812 139.5 C 63.867188 139.203125 63.867188 139.203125 63.894531 138.921875 C 63.359375 138.921875 62.828125 138.921875 62.28125 138.921875 C 62.28125 138.570312 62.28125 138.222656 62.28125 137.859375 C 63.34375 137.859375 64.40625 137.859375 65.503906 137.859375 C 65.535156 138.390625 65.535156 138.390625 65.570312 138.933594 C 65.582031 139.042969 65.589844 139.152344 65.601562 139.269531 C 65.621094 139.976562 65.621094 139.976562 65.273438 140.273438 C 64.230469 140.839844 63.023438 141.019531 61.730469 140.910156 C 60.753906 140.765625 60.128906 140.511719 59.464844 139.980469 C 59.359375 139.898438 59.253906 139.8125 59.144531 139.726562 C 58.679688 139.03125 58.523438 138.222656 58.824219 137.472656 C 59.214844 136.738281 59.847656 136.160156 60.863281 135.828125 C 62.242188 135.5 63.683594 135.558594 64.917969 136.144531 Z M 64.917969 136.144531 "/>
<path style=" stroke:none;fill-rule:nonzero;fill:rgb(98.823529%,65.882355%,6.666667%);fill-opacity:1;" d="M 105.636719 135.742188 C 110.035156 135.742188 110.035156 135.742188 110.929688 136.363281 C 111.054688 136.445312 111.054688 136.445312 111.183594 136.53125 C 111.996094 137.15625 112.152344 137.757812 112.132812 138.601562 C 112.027344 139.257812 111.628906 139.769531 110.957031 140.214844 C 109.375 141.089844 107.628906 140.847656 105.636719 140.847656 C 105.636719 139.164062 105.636719 137.476562 105.636719 135.742188 Z M 107.25 136.800781 C 107.25 137.753906 107.25 138.710938 107.25 139.691406 C 108.929688 139.78125 108.929688 139.78125 109.621094 139.535156 C 110.140625 139.152344 110.355469 138.824219 110.386719 138.292969 C 110.363281 137.894531 110.257812 137.617188 109.933594 137.285156 C 109.015625 136.765625 108.460938 136.800781 107.25 136.800781 Z M 107.25 136.800781 "/>
<path style=" stroke:none;fill-rule:nonzero;fill:rgb(98.823529%,66.666669%,8.235294%);fill-opacity:1;" d="M 247.316406 136.023438 C 247.652344 136.222656 247.652344 136.222656 247.785156 136.511719 C 247.621094 136.710938 247.621094 136.710938 247.390625 136.914062 C 247.316406 136.984375 247.238281 137.054688 247.160156 137.125 C 247.070312 137.203125 247.070312 137.203125 246.980469 137.285156 C 246.351562 137.109375 246.351562 137.109375 246.058594 136.988281 C 245.535156 136.820312 244.992188 136.847656 244.429688 136.898438 C 243.871094 137.082031 243.675781 137.21875 243.371094 137.601562 C 243.144531 138.136719 243.128906 138.527344 243.441406 139.042969 C 243.726562 139.414062 243.984375 139.566406 244.5625 139.691406 C 245.203125 139.734375 245.820312 139.710938 246.441406 139.59375 C 246.441406 139.371094 246.441406 139.148438 246.441406 138.921875 C 245.957031 138.921875 245.46875 138.921875 244.964844 138.921875 C 244.964844 138.570312 244.964844 138.222656 244.964844 137.859375 C 245.984375 137.859375 247.003906 137.859375 248.054688 137.859375 C 248.089844 138.234375 248.117188 138.605469 248.136719 138.980469 C 248.148438 139.085938 248.160156 139.191406 248.171875 139.300781 C 248.183594 139.617188 248.179688 139.867188 248.054688 140.171875 C 247.238281 140.75 246.113281 140.933594 245.003906 140.949219 C 243.976562 140.917969 243.050781 140.714844 242.300781 140.191406 C 241.617188 139.585938 241.253906 138.875 241.292969 138.09375 C 241.445312 137.367188 241.820312 136.644531 242.652344 136.191406 C 244 135.535156 245.886719 135.382812 247.316406 136.023438 Z M 247.316406 136.023438 "/>
<path style=" stroke:none;fill-rule:nonzero;fill:rgb(98.823529%,66.666669%,9.019608%);fill-opacity:1;" d="M 171.542969 135.742188 C 173.316406 135.742188 175.085938 135.742188 176.914062 135.742188 C 176.914062 136.089844 176.914062 136.441406 176.914062 136.800781 C 175.714844 136.800781 174.519531 136.800781 173.289062 136.800781 C 173.289062 137.121094 173.289062 137.4375 173.289062 137.765625 C 174.351562 137.765625 175.414062 137.765625 176.511719 137.765625 C 176.511719 138.113281 176.511719 138.464844 176.511719 138.824219 C 175.445312 138.824219 174.382812 138.824219 173.289062 138.824219 C 173.289062 139.144531 173.289062 139.460938 173.289062 139.789062 C 174.527344 139.789062 175.769531 139.789062 177.046875 139.789062 C 177.046875 140.136719 177.046875 140.488281 177.046875 140.847656 C 175.230469 140.847656 173.414062 140.847656 171.542969 140.847656 C 171.542969 139.164062 171.542969 137.476562 171.542969 135.742188 Z M 171.542969 135.742188 "/>
<path style=" stroke:none;fill-rule:nonzero;fill:rgb(98.823529%,67.058825%,9.411765%);fill-opacity:1;" d="M 24.5625 135.742188 C 25.09375 135.742188 25.625 135.742188 26.175781 135.742188 C 26.175781 136.410156 26.175781 137.078125 26.175781 137.765625 C 27.058594 137.765625 27.945312 137.765625 28.859375 137.765625 C 28.859375 137.097656 28.859375 136.429688 28.859375 135.742188 C 29.433594 135.742188 30.011719 135.742188 30.605469 135.742188 C 30.605469 137.425781 30.605469 139.113281 30.605469 140.847656 C 30.027344 140.847656 29.453125 140.847656 28.859375 140.847656 C 28.859375 140.179688 28.859375 139.511719 28.859375 138.824219 C 27.972656 138.824219 27.085938 138.824219 26.175781 138.824219 C 26.175781 139.492188 26.175781 140.160156 26.175781 140.847656 C 25.644531 140.847656 25.113281 140.847656 24.5625 140.847656 C 24.5625 139.164062 24.5625 137.476562 24.5625 135.742188 Z M 24.5625 135.742188 "/>
<path style=" stroke:none;fill-rule:nonzero;fill:rgb(98.823529%,65.882355%,6.666667%);fill-opacity:1;" d="M 193.421875 135.742188 C 195.195312 135.742188 196.964844 135.742188 198.792969 135.742188 C 198.792969 136.089844 198.792969 136.441406 198.792969 136.800781 C 197.550781 136.800781 196.3125 136.800781 195.035156 136.800781 C 195.035156 137.121094 195.035156 137.4375 195.035156 137.765625 C 196.097656 137.765625 197.160156 137.765625 198.253906 137.765625 C 198.253906 138.113281 198.253906 138.464844 198.253906 138.824219 C 197.191406 138.824219 196.128906 138.824219 195.035156 138.824219 C 195.035156 139.144531 195.035156 139.460938 195.035156 139.789062 C 196.273438 139.789062 197.515625 139.789062 198.792969 139.789062 C 198.792969 140.136719 198.792969 140.488281 198.792969 140.847656 C 197.019531 140.847656 195.25 140.847656 193.421875 140.847656 C 193.421875 139.164062 193.421875 137.476562 193.421875 135.742188 Z M 193.421875 135.742188 "/>
<path style=" stroke:none;fill-rule:nonzero;fill:rgb(98.823529%,65.882355%,5.882353%);fill-opacity:1;" d="M 272.347656 135.742188 C 274.078125 135.742188 275.804688 135.742188 277.582031 135.742188 C 277.582031 136.089844 277.582031 136.441406 277.582031 136.800781 C 276.386719 136.800781 275.191406 136.800781 273.960938 136.800781 C 273.960938 137.121094 273.960938 137.4375 273.960938 137.765625 C 275.023438 137.765625 276.085938 137.765625 277.179688 137.765625 C 277.179688 138.113281 277.179688 138.464844 277.179688 138.824219 C 276.117188 138.824219 275.054688 138.824219 273.960938 138.824219 C 273.960938 139.144531 273.960938 139.460938 273.960938 139.789062 C 275.199219 139.789062 276.441406 139.789062 277.71875 139.789062 C 277.71875 140.136719 277.71875 140.488281 277.71875 140.847656 C 275.945312 140.847656 274.175781 140.847656 272.347656 140.847656 C 272.347656 139.164062 272.347656 137.476562 272.347656 135.742188 Z M 272.347656 135.742188 "/>
<path style=" stroke:none;fill-rule:nonzero;fill:rgb(98.823529%,65.882355%,5.882353%);fill-opacity:1;" d="M 218.121094 135.742188 C 219.847656 135.742188 221.574219 135.742188 223.355469 135.742188 C 223.355469 136.089844 223.355469 136.441406 223.355469 136.800781 C 222.160156 136.800781 220.964844 136.800781 219.730469 136.800781 C 219.730469 137.121094 219.730469 137.4375 219.730469 137.765625 C 220.792969 137.765625 221.859375 137.765625 222.953125 137.765625 C 222.953125 138.113281 222.953125 138.464844 222.953125 138.824219 C 221.890625 138.824219 220.828125 138.824219 219.730469 138.824219 C 219.730469 139.144531 219.730469 139.460938 219.730469 139.789062 C 220.972656 139.789062 222.210938 139.789062 223.488281 139.789062 C 223.488281 140.136719 223.488281 140.488281 223.488281 140.847656 C 221.71875 140.847656 219.945312 140.847656 218.121094 140.847656 C 218.121094 139.164062 218.121094 137.476562 218.121094 135.742188 Z M 218.121094 135.742188 "/>
<path style=" stroke:none;fill-rule:nonzero;fill:rgb(98.823529%,65.490198%,5.882353%);fill-opacity:1;" d="M 148.054688 135.742188 C 149.78125 135.742188 151.507812 135.742188 153.289062 135.742188 C 153.289062 136.089844 153.289062 136.441406 153.289062 136.800781 C 152.09375 136.800781 150.898438 136.800781 149.664062 136.800781 C 149.664062 137.121094 149.664062 137.4375 149.664062 137.765625 C 150.726562 137.765625 151.789062 137.765625 152.886719 137.765625 C 152.886719 138.113281 152.886719 138.464844 152.886719 138.824219 C 151.824219 138.824219 150.757812 138.824219 149.664062 138.824219 C 149.664062 139.144531 149.664062 139.460938 149.664062 139.789062 C 150.90625 139.789062 152.144531 139.789062 153.421875 139.789062 C 153.421875 140.136719 153.421875 140.488281 153.421875 140.847656 C 151.652344 140.847656 149.878906 140.847656 148.054688 140.847656 C 148.054688 139.164062 148.054688 137.476562 148.054688 135.742188 Z M 148.054688 135.742188 "/>
<path style=" stroke:none;fill-rule:nonzero;fill:rgb(98.823529%,65.490198%,5.882353%);fill-opacity:1;" d="M 114.363281 135.742188 C 116.089844 135.742188 117.816406 135.742188 119.597656 135.742188 C 119.597656 136.089844 119.597656 136.441406 119.597656 136.800781 C 118.402344 136.800781 117.207031 136.800781 115.972656 136.800781 C 115.972656 137.121094 115.972656 137.4375 115.972656 137.765625 C 117.035156 137.765625 118.097656 137.765625 119.195312 137.765625 C 119.195312 138.113281 119.195312 138.464844 119.195312 138.824219 C 118.132812 138.824219 117.070312 138.824219 115.972656 138.824219 C 115.972656 139.144531 115.972656 139.460938 115.972656 139.789062 C 117.214844 139.789062 118.453125 139.789062 119.730469 139.789062 C 119.730469 140.136719 119.730469 140.488281 119.730469 140.847656 C 117.960938 140.847656 116.1875 140.847656 114.363281 140.847656 C 114.363281 139.164062 114.363281 137.476562 114.363281 135.742188 Z M 114.363281 135.742188 "/>
<path style=" stroke:none;fill-rule:nonzero;fill:rgb(98.823529%,65.490198%,5.490196%);fill-opacity:1;" d="M 67.785156 135.742188 C 68.316406 135.742188 68.847656 135.742188 69.394531 135.742188 C 69.394531 136.410156 69.394531 137.078125 69.394531 137.765625 C 70.28125 137.765625 71.167969 137.765625 72.082031 137.765625 C 72.082031 137.097656 72.082031 136.429688 72.082031 135.742188 C 72.613281 135.742188 73.144531 135.742188 73.691406 135.742188 C 73.691406 137.425781 73.691406 139.113281 73.691406 140.847656 C 73.160156 140.847656 72.628906 140.847656 72.082031 140.847656 C 72.082031 140.179688 72.082031 139.511719 72.082031 138.824219 C 71.195312 138.824219 70.308594 138.824219 69.394531 138.824219 C 69.394531 139.492188 69.394531 140.160156 69.394531 140.847656 C 68.863281 140.847656 68.332031 140.847656 67.785156 140.847656 C 67.785156 139.164062 67.785156 137.476562 67.785156 135.742188 Z M 67.785156 135.742188 "/>
<path style=" stroke:none;fill-rule:nonzero;fill:rgb(98.823529%,66.666669%,8.627451%);fill-opacity:1;" d="M 253.117188 135.730469 C 253.339844 135.734375 253.339844 135.734375 253.566406 135.734375 C 253.714844 135.738281 253.863281 135.738281 254.015625 135.738281 C 254.128906 135.738281 254.246094 135.742188 254.363281 135.742188 C 254.652344 136.226562 254.945312 136.707031 255.234375 137.191406 C 255.335938 137.355469 255.433594 137.519531 255.53125 137.683594 C 255.769531 138.074219 256.003906 138.46875 256.242188 138.863281 C 256.414062 139.148438 256.585938 139.433594 256.761719 139.71875 C 256.835938 139.839844 256.910156 139.960938 256.984375 140.085938 C 257.046875 140.191406 257.113281 140.296875 257.179688 140.40625 C 257.316406 140.65625 257.316406 140.65625 257.316406 140.847656 C 256.738281 140.847656 256.164062 140.847656 255.570312 140.847656 C 255.347656 140.5 255.128906 140.148438 254.898438 139.789062 C 253.96875 139.757812 253.039062 139.722656 252.082031 139.691406 C 251.949219 140.007812 251.816406 140.328125 251.679688 140.65625 C 251.632812 140.71875 251.589844 140.78125 251.542969 140.847656 C 250.96875 140.847656 250.390625 140.847656 249.796875 140.847656 C 250.082031 140.214844 250.40625 139.605469 250.765625 138.992188 C 250.816406 138.902344 250.871094 138.8125 250.925781 138.71875 C 251.035156 138.53125 251.144531 138.339844 251.257812 138.152344 C 251.425781 137.859375 251.597656 137.566406 251.765625 137.277344 C 251.875 137.09375 251.980469 136.90625 252.089844 136.722656 C 252.140625 136.636719 252.191406 136.546875 252.246094 136.457031 C 252.292969 136.378906 252.339844 136.296875 252.386719 136.214844 C 252.449219 136.109375 252.449219 136.109375 252.511719 136 C 252.679688 135.738281 252.691406 135.742188 253.117188 135.730469 Z M 253.421875 137.285156 C 253.308594 137.472656 253.199219 137.660156 253.085938 137.847656 C 253.023438 137.953125 252.960938 138.058594 252.898438 138.167969 C 252.734375 138.421875 252.734375 138.421875 252.75 138.632812 C 253.238281 138.632812 253.726562 138.632812 254.226562 138.632812 C 254.125 138.265625 254.03125 138.015625 253.816406 137.6875 C 253.769531 137.609375 253.71875 137.535156 253.667969 137.457031 C 253.632812 137.398438 253.59375 137.34375 253.558594 137.285156 C 253.511719 137.285156 253.46875 137.285156 253.421875 137.285156 Z M 253.421875 137.285156 "/>
<path style=" stroke:none;fill-rule:nonzero;fill:rgb(98.823529%,66.666669%,9.019608%);fill-opacity:1;" d="M 82.550781 135.742188 C 83.082031 135.742188 83.613281 135.742188 84.160156 135.742188 C 84.515625 136.328125 84.875 136.917969 85.230469 137.503906 C 85.347656 137.703125 85.46875 137.90625 85.589844 138.105469 C 85.765625 138.390625 85.941406 138.679688 86.113281 138.96875 C 86.195312 139.101562 86.195312 139.101562 86.277344 139.234375 C 86.597656 139.765625 86.871094 140.296875 87.113281 140.847656 C 86.539062 140.847656 85.960938 140.847656 85.367188 140.847656 C 84.847656 140.113281 84.847656 140.113281 84.699219 139.789062 C 83.769531 139.757812 82.835938 139.722656 81.878906 139.691406 C 81.746094 139.976562 81.613281 140.265625 81.476562 140.558594 C 81.433594 140.652344 81.386719 140.75 81.34375 140.847656 C 80.765625 140.847656 80.191406 140.847656 79.597656 140.847656 C 79.914062 140.117188 80.316406 139.414062 80.730469 138.707031 C 80.847656 138.511719 80.960938 138.320312 81.074219 138.125 C 81.542969 137.320312 82.035156 136.527344 82.550781 135.742188 Z M 83.222656 137.285156 C 83.109375 137.472656 82.996094 137.660156 82.886719 137.847656 C 82.824219 137.953125 82.761719 138.058594 82.695312 138.167969 C 82.535156 138.421875 82.535156 138.421875 82.550781 138.632812 C 83.039062 138.632812 83.523438 138.632812 84.027344 138.632812 C 83.925781 138.265625 83.828125 138.015625 83.617188 137.6875 C 83.566406 137.609375 83.519531 137.535156 83.46875 137.457031 C 83.429688 137.398438 83.394531 137.34375 83.355469 137.285156 C 83.3125 137.285156 83.265625 137.285156 83.222656 137.285156 Z M 83.222656 137.285156 "/>
<path style=" stroke:none;fill-rule:nonzero;fill:rgb(98.823529%,66.666669%,8.627451%);fill-opacity:1;" d="M 99.195312 135.742188 C 99.726562 135.742188 100.257812 135.742188 100.804688 135.742188 C 101.1875 136.375 101.566406 137.011719 101.945312 137.644531 C 102.074219 137.859375 102.203125 138.074219 102.332031 138.292969 C 102.519531 138.601562 102.703125 138.914062 102.890625 139.222656 C 102.976562 139.367188 102.976562 139.367188 103.066406 139.515625 C 103.328125 139.957031 103.558594 140.363281 103.625 140.847656 C 103.09375 140.847656 102.5625 140.847656 102.011719 140.847656 C 101.34375 139.910156 101.34375 139.910156 101.34375 139.691406 C 100.410156 139.691406 99.480469 139.691406 98.523438 139.691406 C 98.390625 139.976562 98.257812 140.265625 98.121094 140.558594 C 98.03125 140.652344 97.945312 140.75 97.851562 140.847656 C 97.472656 140.875 97.472656 140.875 97.03125 140.867188 C 96.808594 140.863281 96.808594 140.863281 96.585938 140.859375 C 96.414062 140.851562 96.414062 140.851562 96.242188 140.847656 C 96.335938 140.367188 96.605469 139.945312 96.871094 139.503906 C 96.917969 139.421875 96.96875 139.335938 97.019531 139.25 C 97.121094 139.078125 97.226562 138.902344 97.332031 138.726562 C 97.492188 138.460938 97.648438 138.191406 97.804688 137.925781 C 97.90625 137.753906 98.007812 137.585938 98.109375 137.414062 C 98.15625 137.335938 98.203125 137.257812 98.253906 137.175781 C 98.542969 136.6875 98.859375 136.214844 99.195312 135.742188 Z M 99.867188 137.285156 C 99.753906 137.472656 99.640625 137.660156 99.53125 137.847656 C 99.46875 137.953125 99.40625 138.058594 99.339844 138.167969 C 99.179688 138.421875 99.179688 138.421875 99.195312 138.632812 C 99.683594 138.632812 100.167969 138.632812 100.671875 138.632812 C 100.359375 137.949219 100.359375 137.949219 100 137.285156 C 99.957031 137.285156 99.910156 137.285156 99.867188 137.285156 Z M 99.867188 137.285156 "/>
<path style=" stroke:none;fill-rule:nonzero;fill:rgb(98.823529%,65.882355%,6.27451%);fill-opacity:1;" d="M 50.46875 135.742188 C 51 135.742188 51.53125 135.742188 52.082031 135.742188 C 52.082031 135.832031 52.085938 135.921875 52.085938 136.015625 C 52.09375 136.351562 52.105469 136.6875 52.117188 137.023438 C 52.121094 137.167969 52.125 137.3125 52.128906 137.457031 C 52.132812 137.664062 52.136719 137.875 52.144531 138.085938 C 52.148438 138.210938 52.152344 138.335938 52.15625 138.464844 C 52.222656 138.875 52.359375 139.132812 52.617188 139.5 C 52.996094 139.707031 53.300781 139.714844 53.765625 139.679688 C 54.160156 139.640625 54.320312 139.621094 54.632812 139.433594 C 54.914062 138.960938 54.921875 138.453125 54.941406 137.941406 C 54.945312 137.878906 54.949219 137.816406 54.949219 137.75 C 54.957031 137.550781 54.96875 137.351562 54.976562 137.152344 C 54.980469 137.015625 54.988281 136.878906 54.992188 136.742188 C 55.007812 136.40625 55.019531 136.074219 55.035156 135.742188 C 55.566406 135.742188 56.097656 135.742188 56.644531 135.742188 C 56.65625 136.207031 56.660156 136.671875 56.667969 137.136719 C 56.667969 137.292969 56.671875 137.449219 56.675781 137.609375 C 56.714844 139.546875 56.714844 139.546875 55.941406 140.304688 C 55.238281 140.789062 54.515625 140.898438 53.566406 140.890625 C 53.472656 140.890625 53.375 140.886719 53.28125 140.886719 C 52.414062 140.867188 51.839844 140.746094 51.207031 140.328125 C 50.496094 139.773438 50.429688 139.1875 50.445312 138.46875 C 50.445312 138.351562 50.445312 138.351562 50.445312 138.234375 C 50.445312 137.984375 50.449219 137.734375 50.453125 137.488281 C 50.453125 137.320312 50.457031 137.148438 50.457031 136.980469 C 50.460938 136.566406 50.464844 136.15625 50.46875 135.742188 Z M 50.46875 135.742188 "/>
<path style=" stroke:none;fill-rule:nonzero;fill:rgb(98.823529%,67.450982%,10.588235%);fill-opacity:1;" d="M 155.167969 135.742188 C 155.816406 135.675781 156.402344 135.652344 157.046875 135.742188 C 157.527344 136.046875 157.8125 136.402344 158.121094 136.800781 C 158.25 136.929688 158.386719 137.0625 158.523438 137.1875 C 158.609375 137.089844 158.695312 136.996094 158.78125 136.894531 C 158.894531 136.769531 159.007812 136.644531 159.117188 136.519531 C 159.175781 136.453125 159.230469 136.390625 159.289062 136.324219 C 159.714844 135.847656 159.714844 135.847656 159.867188 135.742188 C 160.179688 135.734375 160.496094 135.734375 160.8125 135.734375 C 160.988281 135.738281 161.160156 135.738281 161.339844 135.738281 C 161.472656 135.738281 161.605469 135.742188 161.746094 135.742188 C 161.539062 136.183594 161.203125 136.519531 160.820312 136.890625 C 160.648438 137.0625 160.472656 137.234375 160.300781 137.40625 C 160.140625 137.566406 159.972656 137.71875 159.804688 137.875 C 159.554688 138.136719 159.554688 138.136719 159.667969 138.394531 C 159.882812 138.652344 160.109375 138.886719 160.359375 139.125 C 161.878906 140.59375 161.878906 140.59375 161.878906 140.847656 C 161.207031 140.933594 160.519531 141.019531 159.867188 140.847656 C 159.25 140.464844 158.894531 139.914062 158.523438 139.402344 C 158.457031 139.355469 158.457031 139.355469 158.390625 139.304688 C 158.246094 139.460938 158.246094 139.460938 158.101562 139.617188 C 157.976562 139.753906 157.851562 139.886719 157.726562 140.023438 C 157.664062 140.089844 157.601562 140.160156 157.535156 140.230469 C 157.476562 140.292969 157.414062 140.359375 157.355469 140.425781 C 157.296875 140.484375 157.242188 140.546875 157.183594 140.609375 C 157.046875 140.75 157.046875 140.75 156.914062 140.847656 C 156.597656 140.855469 156.28125 140.855469 155.964844 140.855469 C 155.792969 140.851562 155.617188 140.851562 155.441406 140.851562 C 155.304688 140.851562 155.171875 140.847656 155.035156 140.847656 C 155.21875 140.472656 155.464844 140.183594 155.796875 139.867188 C 155.890625 139.773438 155.984375 139.683594 156.082031 139.585938 C 156.273438 139.402344 156.46875 139.222656 156.664062 139.039062 C 156.753906 138.957031 156.839844 138.875 156.929688 138.789062 C 157.011719 138.714844 157.089844 138.640625 157.175781 138.5625 C 157.351562 138.347656 157.351562 138.347656 157.246094 138.117188 C 156.992188 137.789062 156.703125 137.492188 156.394531 137.191406 C 155.167969 135.988281 155.167969 135.988281 155.167969 135.742188 Z M 155.167969 135.742188 "/>
<path style=" stroke:none;fill-rule:nonzero;fill:rgb(98.823529%,66.666669%,8.627451%);fill-opacity:1;" d="M 141.558594 136.144531 C 141.664062 136.203125 141.769531 136.261719 141.878906 136.320312 C 141.800781 136.648438 141.640625 136.820312 141.332031 137.066406 C 141.261719 137.125 141.1875 137.183594 141.109375 137.246094 C 141.054688 137.289062 140.996094 137.335938 140.941406 137.378906 C 140.867188 137.34375 140.792969 137.308594 140.71875 137.273438 C 139.980469 136.949219 139.390625 136.773438 138.523438 136.898438 C 137.972656 137.082031 137.765625 137.222656 137.464844 137.601562 C 137.238281 138.136719 137.222656 138.527344 137.535156 139.042969 C 137.820312 139.410156 138.082031 139.566406 138.65625 139.691406 C 139.371094 139.757812 139.707031 139.730469 140.300781 139.4375 C 140.386719 139.390625 140.46875 139.34375 140.554688 139.296875 C 140.804688 139.210938 140.804688 139.210938 141.082031 139.277344 C 141.4375 139.449219 141.71875 139.660156 142.011719 139.882812 C 141.734375 140.355469 141.300781 140.535156 140.671875 140.75 C 139.585938 141.011719 138.457031 141.027344 137.40625 140.679688 C 136.511719 140.320312 135.898438 139.769531 135.535156 139.082031 C 135.261719 138.113281 135.519531 137.316406 136.257812 136.476562 C 137.734375 135.511719 139.875 135.34375 141.558594 136.144531 Z M 141.558594 136.144531 "/>
<path style=" stroke:none;fill-rule:nonzero;fill:rgb(98.823529%,66.666669%,9.019608%);fill-opacity:1;" d="M 94.3125 136.144531 C 94.417969 136.203125 94.523438 136.261719 94.632812 136.320312 C 94.621094 136.601562 94.554688 136.761719 94.277344 136.960938 C 94.042969 137.105469 93.804688 137.246094 93.558594 137.378906 C 93.453125 137.316406 93.351562 137.257812 93.246094 137.191406 C 92.625 136.851562 92.03125 136.847656 91.273438 136.898438 C 90.773438 137.027344 90.550781 137.210938 90.285156 137.53125 C 89.992188 138 89.988281 138.429688 90.203125 138.921875 C 90.519531 139.296875 90.820312 139.550781 91.410156 139.691406 C 92.25 139.753906 92.640625 139.667969 93.308594 139.296875 C 93.558594 139.210938 93.558594 139.210938 93.832031 139.277344 C 94.191406 139.449219 94.46875 139.660156 94.765625 139.882812 C 94.480469 140.355469 94.070312 140.546875 93.421875 140.75 C 92.1875 140.992188 91.0625 141.015625 89.90625 140.59375 C 88.816406 139.933594 88.292969 139.324219 88.136719 138.292969 C 88.261719 137.476562 88.589844 136.710938 89.507812 136.179688 C 90.96875 135.46875 92.824219 135.4375 94.3125 136.144531 Z M 94.3125 136.144531 "/>
<path style=" stroke:none;fill-rule:nonzero;fill:rgb(98.823529%,66.666669%,9.019608%);fill-opacity:1;" d="M 169.144531 136.195312 C 169.273438 136.265625 169.398438 136.339844 169.53125 136.417969 C 169.1875 136.820312 168.855469 137.101562 168.320312 137.378906 C 168.21875 137.316406 168.117188 137.257812 168.011719 137.191406 C 167.433594 136.875 166.882812 136.84375 166.175781 136.898438 C 165.707031 137.019531 165.449219 137.121094 165.125 137.390625 C 164.824219 137.917969 164.757812 138.355469 164.984375 138.902344 C 165.292969 139.28125 165.628906 139.496094 166.175781 139.691406 C 167.058594 139.746094 167.441406 139.636719 168.1875 139.304688 C 168.726562 139.304688 168.726562 139.304688 168.953125 139.433594 C 169.023438 139.488281 169.089844 139.539062 169.160156 139.59375 C 169.230469 139.648438 169.300781 139.703125 169.371094 139.757812 C 169.425781 139.800781 169.476562 139.839844 169.53125 139.882812 C 169.246094 140.355469 168.835938 140.546875 168.1875 140.75 C 167.042969 140.976562 165.878906 141.058594 164.808594 140.636719 C 163.984375 140.226562 163.292969 139.691406 163.027344 138.988281 C 162.839844 138.183594 162.964844 137.382812 163.625 136.707031 C 165 135.488281 167.351562 135.277344 169.144531 136.195312 Z M 169.144531 136.195312 "/>
<path style=" stroke:none;fill-rule:nonzero;fill:rgb(98.823529%,66.666669%,9.019608%);fill-opacity:1;" d="M 215.640625 136.183594 C 215.738281 136.25 215.738281 136.25 215.839844 136.320312 C 215.839844 136.742188 215.808594 136.777344 215.4375 137.066406 C 215.363281 137.125 215.285156 137.183594 215.210938 137.246094 C 215.152344 137.289062 215.09375 137.335938 215.035156 137.378906 C 214.722656 137.269531 214.425781 137.15625 214.128906 137.03125 C 213.558594 136.859375 213.230469 136.855469 212.617188 136.898438 C 212.105469 137.070312 211.660156 137.28125 211.429688 137.664062 C 211.230469 138.242188 211.277344 138.679688 211.679688 139.210938 C 212.238281 139.601562 212.625 139.71875 213.410156 139.714844 C 213.828125 139.679688 214.136719 139.554688 214.496094 139.402344 C 214.671875 139.339844 214.851562 139.277344 215.035156 139.210938 C 215.34375 139.433594 215.652344 139.65625 215.972656 139.882812 C 215.636719 140.367188 215.3125 140.535156 214.632812 140.75 C 213.398438 140.988281 212.332031 141.003906 211.183594 140.589844 C 210.496094 140.277344 209.882812 139.785156 209.59375 139.234375 C 209.351562 138.40625 209.375 137.554688 209.984375 136.816406 C 211.414062 135.441406 213.675781 135.34375 215.640625 136.183594 Z M 215.640625 136.183594 "/>
<path style=" stroke:none;fill-rule:nonzero;fill:rgb(98.823529%,66.666669%,9.019608%);fill-opacity:1;" d="M 16.644531 135.742188 C 18.59375 135.742188 20.542969 135.742188 22.550781 135.742188 C 22.550781 136.125 22.550781 136.503906 22.550781 136.898438 C 21.839844 136.898438 21.132812 136.898438 20.402344 136.898438 C 20.402344 138.203125 20.402344 139.503906 20.402344 140.847656 C 19.871094 140.847656 19.339844 140.847656 18.792969 140.847656 C 18.792969 139.542969 18.792969 138.242188 18.792969 136.898438 C 18.082031 136.898438 17.375 136.898438 16.644531 136.898438 C 16.644531 136.515625 16.644531 136.136719 16.644531 135.742188 Z M 16.644531 135.742188 "/>
<path style=" stroke:none;fill-rule:nonzero;fill:rgb(98.823529%,67.058825%,9.019608%);fill-opacity:1;" d="M 186.308594 135.742188 C 186.839844 135.742188 187.371094 135.742188 187.917969 135.742188 C 187.917969 137.046875 187.917969 138.347656 187.917969 139.691406 C 189.070312 139.691406 190.222656 139.691406 191.410156 139.691406 C 191.410156 140.074219 191.410156 140.453125 191.410156 140.847656 C 189.726562 140.847656 188.042969 140.847656 186.308594 140.847656 C 186.308594 139.164062 186.308594 137.476562 186.308594 135.742188 Z M 186.308594 135.742188 "/>
<path style=" stroke:none;fill-rule:nonzero;fill:rgb(98.823529%,67.058825%,9.019608%);fill-opacity:1;" d="M 179.195312 135.742188 C 179.726562 135.742188 180.257812 135.742188 180.804688 135.742188 C 180.804688 137.046875 180.804688 138.347656 180.804688 139.691406 C 181.957031 139.691406 183.109375 139.691406 184.296875 139.691406 C 184.296875 140.074219 184.296875 140.453125 184.296875 140.847656 C 182.613281 140.847656 180.929688 140.847656 179.195312 140.847656 C 179.195312 139.164062 179.195312 137.476562 179.195312 135.742188 Z M 179.195312 135.742188 "/>
<path style=" stroke:none;fill-rule:nonzero;fill:rgb(98.823529%,67.843139%,12.156863%);fill-opacity:1;" d="M 259.195312 135.742188 C 259.769531 135.742188 260.347656 135.742188 260.941406 135.742188 C 260.941406 137.425781 260.941406 139.113281 260.941406 140.847656 C 260.363281 140.847656 259.789062 140.847656 259.195312 140.847656 C 259.195312 139.164062 259.195312 137.476562 259.195312 135.742188 Z M 259.195312 135.742188 "/>
<path style=" stroke:none;fill-rule:nonzero;fill:rgb(98.823529%,65.882355%,7.058824%);fill-opacity:1;" d="M 233.558594 135.742188 C 234.089844 135.742188 234.621094 135.742188 235.167969 135.742188 C 235.167969 137.425781 235.167969 139.113281 235.167969 140.847656 C 234.636719 140.847656 234.105469 140.847656 233.558594 140.847656 C 233.558594 139.164062 233.558594 137.476562 233.558594 135.742188 Z M 233.558594 135.742188 "/>
<path style=" stroke:none;fill-rule:nonzero;fill:rgb(98.823529%,65.490198%,5.098039%);fill-opacity:1;" d="M 131.542969 135.742188 C 132.074219 135.742188 132.605469 135.742188 133.15625 135.742188 C 133.15625 137.425781 133.15625 139.113281 133.15625 140.847656 C 132.621094 140.847656 132.089844 140.847656 131.542969 140.847656 C 131.542969 139.164062 131.542969 137.476562 131.542969 135.742188 Z M 131.542969 135.742188 "/>
<path style=" stroke:none;fill-rule:nonzero;fill:rgb(98.823529%,66.666669%,8.627451%);fill-opacity:1;" d="M 225.503906 139.59375 C 226.035156 139.59375 226.566406 139.59375 227.113281 139.59375 C 227.125 139.859375 227.132812 140.121094 227.140625 140.382812 C 227.144531 140.496094 227.144531 140.496094 227.148438 140.609375 C 227.15625 141.054688 227.132812 141.363281 226.710938 141.714844 C 226.417969 141.824219 226.417969 141.824219 226.097656 141.890625 C 225.992188 141.910156 225.886719 141.933594 225.78125 141.957031 C 225.503906 142.003906 225.503906 142.003906 225.234375 142.003906 C 225.191406 141.8125 225.144531 141.621094 225.101562 141.425781 C 225.207031 141.402344 225.3125 141.378906 225.417969 141.355469 C 225.816406 141.21875 225.894531 141.136719 226.039062 140.847656 C 225.863281 140.847656 225.6875 140.847656 225.503906 140.847656 C 225.503906 140.433594 225.503906 140.019531 225.503906 139.59375 Z M 225.503906 139.59375 "/>
<path style=" stroke:none;fill-rule:nonzero;fill:rgb(98.823529%,76.078433%,34.509805%);fill-opacity:1;" d="M 182.550781 50.578125 C 182.640625 50.609375 182.726562 50.640625 182.820312 50.675781 C 181.269531 51.785156 179.71875 52.898438 178.121094 54.046875 C 178.03125 54.015625 177.945312 53.984375 177.851562 53.949219 C 177.910156 53.910156 177.964844 53.871094 178.023438 53.828125 C 178.445312 53.53125 178.851562 53.230469 179.238281 52.910156 C 180.058594 52.222656 180.960938 51.59375 181.921875 51.007812 C 182.140625 50.871094 182.347656 50.726562 182.550781 50.578125 Z M 182.550781 50.578125 "/>
<path style=" stroke:none;fill-rule:nonzero;fill:rgb(36.078432%,61.176473%,99.607843%);fill-opacity:1;" d="M 172.347656 115.222656 C 172.4375 115.253906 172.527344 115.285156 172.617188 115.316406 C 172.085938 115.699219 171.554688 116.082031 171.007812 116.472656 C 171.007812 116.117188 171.125 116.054688 171.453125 115.792969 C 171.574219 115.695312 171.574219 115.695312 171.703125 115.589844 C 171.945312 115.414062 171.945312 115.414062 172.347656 115.222656 Z M 172.347656 115.222656 "/>
<path style=" stroke:none;fill-rule:nonzero;fill:rgb(33.725491%,60.000002%,99.607843%);fill-opacity:1;" d="M 269.128906 115.222656 C 269.214844 115.253906 269.304688 115.285156 269.394531 115.316406 C 268.910156 115.667969 268.421875 116.015625 267.917969 116.378906 C 267.917969 116.039062 267.992188 115.992188 268.296875 115.746094 C 268.402344 115.660156 268.402344 115.660156 268.507812 115.570312 C 268.726562 115.414062 268.726562 115.414062 269.128906 115.222656 Z M 269.128906 115.222656 "/>
<path style=" stroke:none;fill-rule:nonzero;fill:rgb(36.862746%,61.56863%,99.607843%);fill-opacity:1;" d="M 193.289062 114.933594 C 193.378906 114.964844 193.464844 114.996094 193.558594 115.027344 C 193.070312 115.378906 192.582031 115.726562 192.082031 116.089844 C 192.082031 115.6875 192.382812 115.496094 192.75 115.222656 C 193.0625 115.039062 193.0625 115.039062 193.289062 114.933594 Z M 193.289062 114.933594 "/>
<path style=" stroke:none;fill-rule:nonzero;fill:rgb(98.823529%,75.294119%,32.549021%);fill-opacity:1;" d="M 42.550781 136.03125 C 42.640625 136.0625 42.726562 136.09375 42.820312 136.128906 C 42.375 136.445312 41.933594 136.761719 41.476562 137.089844 C 41.476562 136.75 41.554688 136.699219 41.863281 136.453125 C 41.933594 136.394531 42.003906 136.335938 42.078125 136.273438 C 42.28125 136.128906 42.28125 136.128906 42.550781 136.03125 Z M 42.550781 136.03125 "/>
<path style=" stroke:none;fill-rule:nonzero;fill:rgb(98.823529%,77.254903%,37.64706%);fill-opacity:1;" d="M 137.046875 136.03125 C 137.136719 136.0625 137.222656 136.09375 137.316406 136.128906 C 136.917969 136.414062 136.519531 136.699219 136.105469 136.996094 C 136.105469 136.613281 136.296875 136.503906 136.644531 136.222656 C 136.777344 136.160156 136.910156 136.097656 137.046875 136.03125 Z M 137.046875 136.03125 "/>
<path style=" stroke:none;fill-rule:nonzero;fill:rgb(98.823529%,76.47059%,36.470589%);fill-opacity:1;" d="M 242.953125 136.03125 C 243.042969 136.0625 243.128906 136.09375 243.222656 136.128906 C 242.910156 136.351562 242.601562 136.570312 242.28125 136.800781 C 242.191406 136.769531 242.105469 136.738281 242.011719 136.707031 C 242.328125 136.480469 242.640625 136.253906 242.953125 136.03125 Z M 242.953125 136.03125 "/>
<path style=" stroke:none;fill-rule:nonzero;fill:rgb(98.823529%,76.47059%,35.294119%);fill-opacity:1;" d="M 89.796875 136.03125 C 89.886719 136.0625 89.976562 136.09375 90.066406 136.128906 C 89.757812 136.351562 89.445312 136.570312 89.128906 136.800781 C 89.039062 136.769531 88.949219 136.738281 88.859375 136.707031 C 89.171875 136.480469 89.484375 136.253906 89.796875 136.03125 Z M 89.796875 136.03125 "/>
<path style=" stroke:none;fill-rule:nonzero;fill:rgb(99.215686%,74.901962%,30.980393%);fill-opacity:1;" d="M 252.75 135.742188 C 253.285156 135.742188 253.816406 135.742188 254.363281 135.742188 C 254.316406 135.804688 254.273438 135.867188 254.226562 135.933594 C 254.105469 135.933594 254.105469 135.933594 253.976562 135.929688 C 253.816406 135.929688 253.816406 135.929688 253.648438 135.929688 C 253.542969 135.925781 253.433594 135.925781 253.324219 135.925781 C 252.996094 135.925781 252.996094 135.925781 252.617188 136.03125 C 252.660156 135.933594 252.707031 135.839844 252.75 135.742188 Z M 252.75 135.742188 "/>
</g>
</svg>
